<?xml version="1.0" encoding="UTF-8" standalone="no"?>
<svg
   xmlns:osb="http://www.openswatchbook.org/uri/2009/osb"
   xmlns:dc="http://purl.org/dc/elements/1.1/"
   xmlns:cc="http://creativecommons.org/ns#"
   xmlns:rdf="http://www.w3.org/1999/02/22-rdf-syntax-ns#"
   xmlns:svg="http://www.w3.org/2000/svg"
   xmlns="http://www.w3.org/2000/svg"
   xmlns:sodipodi="http://sodipodi.sourceforge.net/DTD/sodipodi-0.dtd"
   xmlns:inkscape="http://www.inkscape.org/namespaces/inkscape"
   width="9047.5059"
   height="2335.0764"
   viewBox="0 0 5349.6127 1380.8389"
   version="1.1"
   id="svg27"
   sodipodi:docname="DeviceSQL_ControlPanelLoginSplash.svg"
   inkscape:version="0.92.2 (5c3e80d, 2017-08-06)"
   inkscape:export-filename="C:\Users\liwt_admin\Documents\GitHub\DeviceSQL\DeviceSQL_ControlPanelLoginSplash.png"
   inkscape:export-xdpi="4.0300002"
   inkscape:export-ydpi="4.0300002">
  <metadata
     id="metadata33">
    <rdf:RDF>
      <cc:Work
         rdf:about="">
        <dc:format>image/svg+xml</dc:format>
        <dc:type
           rdf:resource="http://purl.org/dc/dcmitype/StillImage" />
        <dc:title />
      </cc:Work>
    </rdf:RDF>
  </metadata>
  <defs
     id="defs31">
    <linearGradient
       id="linearGradient4586"
       osb:paint="solid">
      <stop
         style="stop-color:#000000;stop-opacity:1;"
         offset="0"
         id="stop4584" />
    </linearGradient>
  </defs>
  <sodipodi:namedview
     pagecolor="#ffffff"
     bordercolor="#666666"
     borderopacity="1"
     objecttolerance="10"
     gridtolerance="10"
     guidetolerance="10"
     inkscape:pageopacity="0"
     inkscape:pageshadow="2"
     inkscape:window-width="1680"
     inkscape:window-height="1027"
     id="namedview29"
     showgrid="false"
     inkscape:zoom="0.08032733"
     inkscape:cx="3263.3219"
     inkscape:cy="-698.80164"
     inkscape:window-x="-8"
     inkscape:window-y="-8"
     inkscape:window-maximized="1"
     inkscape:current-layer="g4538"
     fit-margin-top="0"
     fit-margin-left="0"
     fit-margin-right="0"
     fit-margin-bottom="0" />
  <g
     id="g4538"
     transform="translate(1859.259,310.6268)">
    <rect
       style="opacity:1;fill:#1978d7;fill-opacity:1;stroke:none;stroke-width:0;stroke-linejoin:round;stroke-miterlimit:4;stroke-dasharray:none;stroke-opacity:1"
       id="rect4558"
       width="5350.2095"
       height="1380.8389"
       x="-1859.4049"
       y="-310.6268" />
    <path
       style="fill:#ffffff;fill-opacity:1;stroke-width:2.8179841"
       id="path1334"
       d="m 516.99412,187.47584 -141.0034,-81.4285 v 58.08709 h -720.7078 l 140.3302,-148.259741 c 11.9425,-9.57267 27.5681,-16.28793003 43.6421,-16.65992003 65.024899,0 103.639599,-0.0143 117.853899,-0.0477 9.6346,27.45000003 35.5149004,47.26321003 66.2814,47.26321003 38.9221,0 70.509,-31.58395 70.509,-70.52003 0,-38.95279 -31.584,-70.52551 -70.509,-70.52551 -30.7664996,0 -56.6468,19.80197 -66.2814,47.22945 l -116.473299,-0.0192 c -31.5669,0 -64.6441,17.3193 -85.6975,37.62288 0.5746,-0.60307 1.1722,-1.24554 -0.048,0.009 -0.4433,0.5016 -148.8854,157.282951 -148.8854,157.282951 -11.9173,9.55858 -27.5343,16.23157 -43.597,16.61484 h -81.5305 c -10.8068,-53.86021 -58.369,-94.439191 -115.422,-94.439191 -65.04723,0 -117.7747,52.727291 -117.7747,117.755101 0,65.04752 52.72747,117.77761 117.7747,117.77761 57.0644,0 104.6261,-40.61276 115.433,-94.518 h 80.1016 c 0.2049,0 0.4098,0.009 0.62,0 h 177.1692 c 16.0317,0.40888 31.6292,7.09006 43.5351,16.65992 0,0 148.406399,156.77006 148.865899,157.27735 1.1889,1.25963 0.597,0.603 0,0.009 21.0528,20.30074 54.1445,37.60882 85.717,37.60882 l 112.245901,-0.0238 v 47.2773 h 141.0403 V 328.48413 h -141.0403 v 47.21533 c 0,0 -29.563401,-0.0533 -113.620701,-0.0533 -16.07689962,-0.36931 -31.7193,-7.07596 -43.6565,-16.64866 L -168.49268,210.70947 h 544.4596 v 58.18011 z"
       inkscape:connector-curvature="0" />
    <path
       d="m -1136.5299,237.03354 -163.2461,53.30563 -142.0219,62.68161 -39.7327,10.48952 c -10.1191,9.6252 -20.7292,19.37388 -32.2048,29.24489 -12.5857,10.85766 -24.3077,20.73037 -33.3167,27.88555 -9.9939,7.89772 -24.801,22.70424 -32.3271,32.08022 -11.2292,14.06625 -20.113,28.99624 -23.9384,40.47297 -6.7871,20.73038 -3.4539,41.70599 9.6252,61.07987 16.7809,24.67697 50.2205,49.84782 89.2106,66.99919 19.8672,8.7626 53.3057,19.9901 78.4765,26.28211 41.8283,10.61241 122.7737,22.08801 167.3167,23.81663 9.0062,0.36985 21.0997,0.36985 21.5919,0 0.9883,-0.61907 7.8983,-13.82044 15.92,-30.2304 27.3928,-55.89742 47.1349,-108.33874 57.869,-153.12871 6.4161,-27.14472 11.4745,-63.29898 14.8049,-106.11395 0.8654,-11.96949 1.2341,-52.07147 0.4938,-65.64553 -1.1112,-22.20978 -3.0856,-40.22375 -6.1679,-57.86901 -0.4939,-2.59179 -0.6191,-4.93664 -0.371,-5.05955 0.4922,-0.36985 1.9727,-0.86317 22.0857,-6.66412 l -4.07,-9.62293 v -0.003 0 z m -37.2639,21.84164 c 1.4806,0 5.4277,37.88003 6.4144,61.81957 0.2481,5.05841 0.1229,8.38991 -0.1229,8.38991 -0.9861,0 -20.8533,-11.72083 -35.0408,-20.60463 -12.3399,-7.77425 -35.7832,-23.32217 -39.4846,-26.28325 -1.2364,-0.86317 -1.1135,-0.98608 9.0062,-4.44218 17.1496,-5.80039 57.8707,-18.87942 59.2277,-18.87942 z m -83.1656,27.39336 c 1.1113,0 3.9472,1.60231 10.7342,5.79868 25.4178,15.91721 59.9686,35.16705 74.7752,41.58423 4.5645,1.97386 5.0567,1.23246 -5.4294,8.39047 -22.4573,15.29985 -50.4686,30.35274 -84.7714,45.53025 -6.045,2.7147 -11.1034,4.81146 -11.2263,4.81146 -0.2459,0 0.4921,-3.08284 1.4782,-6.78532 8.2676,-30.72657 12.9573,-61.82015 13.2054,-86.74519 0.1229,-12.33991 0.1229,-12.33991 1.2341,-12.70805 -0.2481,0.12347 -0.1251,0.12347 0,0.12347 z m -17.1508,6.53895 c 0.738,0.73913 0.2458,28.38002 -0.7419,35.90618 -2.2208,18.01568 -5.6758,34.79606 -11.3499,53.67661 -1.3576,4.56225 -2.5935,8.38991 -2.8376,8.63572 -0.4962,0.61622 -17.4006,-15.91778 -22.9529,-22.33382 -9.6252,-11.10574 -17.1502,-22.21092 -22.7031,-33.06858 -2.8382,-5.55287 -7.2792,-16.40996 -6.9099,-16.78094 1.9738,-1.35707 67.0014,-26.52792 67.4953,-26.03517 z m -80.699,31.71094 c 0.1229,0 0.2458,0 0.371,0.12291 0.2458,0.24694 1.1113,2.22194 1.8516,4.44218 3.9471,10.73532 12.8298,26.52906 20.4822,36.64758 8.3905,11.10574 19.3734,22.95005 28.5018,30.72373 2.9628,2.46775 5.6758,4.81146 6.0451,5.18245 0.742,0.74084 0.9883,0.61622 -19.1252,8.26757 -23.3182,8.8838 -48.7383,17.76759 -77.8592,27.14471 a 3883.6947,3883.6947 0 0 0 -20.8498,6.78703 c -1.1124,0.37099 -0.7414,-0.24694 2.4666,-5.30478 14.4361,-22.58134 36.3989,-66.87799 48.7388,-98.21964 2.0979,-5.4294 4.1953,-10.85766 4.5662,-12.09182 0.4939,-1.72863 1.1096,-2.34485 2.713,-3.20916 0.8638,-0.24467 1.7287,-0.49276 2.0979,-0.49276 z m -24.6758,10.24143 c 0.3693,0.24809 -5.9238,13.44946 -12.0935,25.54184 -11.9695,23.32047 -25.0485,46.27279 -42.5697,74.15834 -2.9611,4.81147 -5.7982,9.25479 -6.1691,9.74811 -0.6163,0.86431 -0.8644,0.61623 -2.8382,-3.20802 -4.1953,-8.26757 -7.6514,-18.87999 -9.5017,-28.6281 -1.8516,-9.6252 -1.4806,-26.40501 0.6179,-36.76935 1.6023,-7.64963 1.4805,-7.52616 5.1819,-9.37769 15.7937,-8.02005 66.8785,-31.95845 67.3724,-31.46513 z m 212.8476,8.63856 v 5.18188 c 0,27.51627 -2.9611,65.27341 -7.2815,92.79082 -0.7403,4.81146 -1.3594,8.75861 -1.4806,8.88379 0,0 -3.5778,-0.98607 -7.7731,-2.22194 -18.5078,-5.79982 -38.6209,-14.31377 -56.76,-24.30654 -11.9706,-6.54009 -29.3672,-17.27655 -28.8728,-17.77044 0.1212,-0.12234 5.3048,-2.83704 11.3499,-6.04563 24.1876,-12.58514 47.3829,-26.15807 67.4959,-39.60752 7.5273,-5.05955 18.8771,-13.20194 21.3477,-15.42388 z m -306.0094,36.52127 c 0.4933,0 0.3699,0.98721 -0.3704,5.42939 -0.4939,3.20916 -1.1101,9.13188 -1.3554,13.20194 -0.9895,18.01568 1.9739,31.3428 10.8577,49.60371 2.4678,5.05955 4.4433,9.25479 4.3181,9.37712 -0.8643,0.74141 -82.5471,24.68038 -108.2141,31.71265 -7.6496,2.09677 -14.3115,3.94829 -14.8076,4.07006 -0.8621,0.24808 -0.9861,0.12518 -0.6163,-1.97443 2.8376,-18.13688 16.6581,-41.82833 35.9062,-61.81844 12.8332,-13.32541 23.0752,-21.09852 40.5964,-31.09471 12.5858,-7.15518 31.9579,-17.88879 33.4385,-18.38382 10e-4,-0.12347 0.124,-0.12347 0.2469,-0.12347 z m 192.4899,34.4262 c 0.1229,-0.1229 3.084,1.48225 6.6618,3.57901 26.4062,15.30098 63.1761,29.49127 94.5155,36.77049 l 2.8399,0.61793 -3.9495,2.21853 c -16.4099,9.13189 -70.3318,31.58804 -125.4861,52.19551 -8.0218,2.95994 -15.9178,5.92272 -17.4006,6.53895 -1.4805,0.61623 -2.8382,0.98722 -2.8382,0.86431 0,-0.12518 2.2226,-4.44332 5.0585,-9.74811 15.4238,-28.87333 30.9723,-64.03924 38.8689,-88.47096 0.9895,-2.34428 1.6046,-4.44105 1.7298,-4.56566 z m -19.6191,6.41719 c 0.1251,0.12574 -0.8632,2.71469 -2.098,5.67577 -10.7341,26.03516 -24.8027,54.41688 -42.8166,86.25073 -4.5646,8.14466 -8.3905,14.68475 -8.5157,14.68475 -0.1212,0 -3.8242,-2.22252 -8.2658,-4.93664 -26.1604,-16.04125 -49.3568,-35.78328 -64.5326,-54.90907 l -2.222,-2.7147 11.2275,-3.08512 c 40.2261,-10.98056 74.4036,-22.82601 108.3376,-37.38558 4.8132,-1.975 8.7626,-3.58014 8.8856,-3.58014 z m 121.9099,42.56973 c 0,0 0.1235,0.12347 0,0 0.1229,2.83817 -6.1702,28.25711 -11.3532,46.64036 -4.3182,15.42388 -8.0218,27.51741 -14.8066,48.86231 -2.961,9.37996 -5.5506,17.15136 -5.6757,17.15136 -0.1229,0 -0.8632,-0.1229 -1.6035,-0.36814 -36.6464,-6.66526 -69.4686,-15.91891 -100.3164,-28.25711 -8.6385,-3.4561 -20.9767,-9.00898 -21.717,-9.6252 -0.2458,-0.24922 7.158,-3.70192 16.5351,-7.77425 56.1427,-24.55462 114.3827,-52.44131 134.3711,-64.40852 2.3437,-1.48111 4.1952,-2.22081 4.5662,-2.22081 z m -281.4536,9.6252 c 0.247,0.24581 -15.4238,22.82715 -37.3884,53.55087 -7.6496,10.73532 -16.5334,23.32046 -19.8643,28.00902 -3.3321,4.68913 -8.3905,12.09296 -11.2287,16.53514 l -5.1847,8.02063 -5.5529,-4.68856 c -6.5401,-5.43054 -17.8905,-17.02846 -22.9495,-23.44508 -10.6124,-13.20137 -17.7676,-27.14471 -20.6057,-39.85276 -1.3577,-5.92386 -1.3577,-8.88664 -0.1252,-9.25478 1.8504,-0.49333 34.796,-8.26757 65.6455,-15.42559 17.1514,-3.94715 37.0157,-8.63571 44.1726,-10.3632 7.1575,-1.73033 12.9584,-3.08569 13.0813,-3.08569 z m 15.7932,6.0462 3.9472,4.44161 c 17.7704,19.86607 35.9084,34.55196 57.8718,47.38177 3.9494,2.22251 6.9099,4.19524 6.6619,4.32099 -0.8615,0.61622 -76.2551,27.38938 -111.1741,39.48234 -19.618,6.90936 -35.7833,12.46167 -35.905,12.46167 -0.123,0 -1.2342,-0.73914 -2.4701,-1.60345 l -2.2196,-1.60458 3.5778,-5.18131 c 11.598,-16.78152 26.1604,-35.16591 57.8713,-73.41693 z m 98.4672,70.45472 c 0.1212,-0.12234 5.5506,1.85038 12.213,4.32098 16.0429,6.04506 28.7498,9.86931 45.7794,14.18859 20.9768,5.30649 51.3301,10.48894 69.2229,11.96891 2.7147,0.24581 4.1952,0.49389 3.7013,0.86431 -0.8654,0.49389 -19.0017,6.54009 -32.3283,10.73532 -21.2248,6.66186 -86.0038,25.78709 -138.8144,40.96516 -9.7481,2.8376 -18.1391,5.18245 -18.6324,5.30479 -1.2325,0.24808 -5.306,-0.86431 -5.306,-1.35764 0,-0.24524 2.9611,-4.07005 6.5401,-8.26586 17.767,-21.2237 35.4134,-44.91401 50.0971,-67.37131 4.0706,-6.17137 7.5273,-11.22978 7.5273,-11.35325 z m -21.7188,0.6185 c 0.1229,0.1229 -8.6368,14.18858 -23.9355,38.37279 -6.5413,10.24143 -13.8216,21.83993 -16.4134,25.91226 -2.4678,3.94829 -6.1691,10.1191 -8.2659,13.57293 l -3.579,6.29371 -1.8504,-0.4939 c -4.4433,-1.23416 -35.6603,-12.217 -43.9279,-15.54792 -10.242,-4.07234 -20.8533,-9.0067 -28.751,-13.20194 -9.8699,-5.30649 -22.2081,-13.20421 -21.222,-13.44945 0.2464,-0.12291 17.1514,-4.69027 37.5096,-10.24143 54.0459,-14.68532 84.0288,-23.19813 103.6496,-29.36723 3.579,-1.11069 6.663,-1.975 6.7859,-1.84982 z m 153.6215,36.02794 h 0.1229 c 0.4939,1.2353 -19.4939,56.7606 -26.7771,74.28124 -1.6018,3.9483 -2.2169,4.93722 -3.0823,4.81147 -2.0979,-0.1212 -31.0936,-4.19353 -48.7406,-6.78533 -30.7225,-4.68856 -82.3007,-13.69753 -95.2557,-16.65747 l -2.9611,-0.61623 18.3827,-4.19808 c 39.4864,-8.8838 58.4881,-13.69526 77.7362,-19.61798 24.3089,-7.40326 48.3713,-16.65805 72.6778,-28.00903 3.8249,-1.72805 7.0334,-3.08512 7.8972,-3.20859 z"
       id="path7"
       style="fill:#ffffff;fill-opacity:1;stroke-width:0.56900001"
       inkscape:connector-curvature="0" />
    <path
       d="m -1304.8345,-143.50285 c -2.7147,-0.36814 -46.5197,15.42559 -74.7751,26.89948 -38.1287,15.54906 -67.7406,30.356719 -86.0032,43.186529 -6.7853,4.81431 -15.301,13.32712 -16.6563,16.65804 -0.4934,1.23417 -0.7414,2.7147 -0.7414,4.19524 l 16.5351,15.67083 39.3606,12.58571 93.654,16.78152 107.1017,18.38553 1.1112,-9.25422 c -0.3692,0 -0.6173,-0.1229 -0.9843,-0.1229 l -14.0703,-2.22195003 -2.8359,-5.05840997 c -14.5607,-25.66588 -30.6013,-57.50086 -39.9785,-78.97094 -7.2792,-16.658039 -14.1897,-35.905039 -18.0156,-49.725479 -2.0979,-8.39047 -2.3438,-8.8838 -3.6991,-9.0067 v -0.003 h -0.01 z m -1.9767,6.29485 h 0.1269 c 0.1212,0.12177 0.6151,3.57901 1.1096,7.6485 2.0956,17.27712 5.9238,33.932309 11.9689,51.947989 4.5645,13.5735 4.5645,12.8338 -0.7403,11.22865 -12.5857,-3.45383 -68.9747,-13.20194 -109.817,-18.87771 -6.5401,-0.86432 -12.0929,-1.72749 -12.0929,-1.85039 -0.4934,-0.49333 29.4895,-16.165289 42.6926,-22.333249 16.9044,-7.77539 63.299,-27.14756 66.7522,-27.76379 z m -118.9477,55.278349 4.8143,1.60231 c 26.1569,8.8855 91.9225,21.47178 128.2014,24.43286 4.0706,0.37041 7.5273,0.7414 7.6485,0.7414 0.1229,0.12291 -3.3298,1.97386 -7.7731,4.07063 -17.5195,8.76089 -36.7694,19.49621 -50.0959,27.76378 -3.9472,2.46662 -7.5273,4.44219 -8.0195,4.44219 -0.4939,0 -3.084,-0.49389 -5.7987,-0.86431 l -4.9355,-0.74141 -12.3376,-12.09296 c -21.717,-21.09852 -38.7455,-37.38557 -45.2856,-43.55638 z m -4.9338,3.82425 17.3977,21.71759 c 9.5001,11.96892 19.1247,23.69032 21.2243,26.28041 2.0956,2.59293 3.8243,4.6914 3.7014,4.8143 -0.4939,0.36985 -25.1703,-4.44332 -38.2516,-7.40325 -13.4495,-3.08569 -19.0018,-4.56623 -27.2688,-7.15632 l -6.787,-2.22194 v -1.72862 c 0.1229,-8.26757 10.6124,-20.60577 28.38,-33.19034 z m 147.8211,29.61417 c 0.4944,0 1.1095,1.11012 2.5901,4.44162 4.1952,9.25365 17.2771,34.17983 20.4823,38.99129 0.99,1.60572 2.7147,1.72862 -14.6814,-1.10955 -41.8283,-6.78817 -55.2795,-9.0067 -55.2795,-9.25364 0,-0.12291 1.2342,-0.98722 2.8382,-1.85153 12.9567,-7.15518 26.0352,-16.28706 37.6348,-26.03516 2.8382,-2.34485 5.4294,-4.56566 5.9216,-4.93665 0.1229,-0.24638 0.371,-0.36928 0.4939,-0.24638 z"
       id="path14"
       style="fill:#ffffff;fill-opacity:1;stroke-width:0.56900001"
       inkscape:connector-curvature="0" />
    <path
       d="m -1481.4082,-58.486281 c 0,0 -2.713,4.32042 -0.1224,10.73703 1.6057,3.94715 6.2937,8.75862 11.5985,13.69526 0,0 54.9085,53.55087 61.5721,61.20221 30.3527,35.04187 43.5564,69.59155 44.7905,117.220831 0.7403,30.60082 -5.0607,57.49972 -19.4962,88.71791 -25.6653,56.01976 -79.8347,117.83876 -163.3696,186.44423 l 12.2176,-4.07233 c 7.8966,-5.92386 18.6319,-12.21473 43.8028,-26.03517 58.1159,-31.83669 123.5134,-61.07987 203.7179,-91.1868 115.4905,-43.43461 305.39083,-94.27249 413.47863,-110.80478 l 11.23036,-1.72863 -1.72862,-2.71469 c -9.86931,-15.30098 -16.65805,-24.80101 -24.80271,-34.91897 -23.68918,-29.36722 -52.43734,-53.180441 -87.60552,-72.923601 -48.36894,-27.02125 -110.92994,-48.1209 -190.14444,-63.79173 -14.93,-2.96279 -47.7522,-8.63799 -74.4041,-12.70976 -56.5137,-8.75861 -93.0372,-14.80594 -133.2616,-21.71588 -14.4355,-2.46889 -36.0307,-6.16967 -50.3439,-9.25365 -7.4033,-1.60572 -21.5919,-4.93664 -32.6971,-8.76146 -8.8838,-3.45667 -21.7175,-6.91164 -24.4322,-17.40002 z m 31.8366,30.8489 c 0.1218,-0.12176 2.0957,0.61623 4.6886,1.48054 4.6886,1.60231 10.7342,3.45383 17.8928,5.4294 a 910.09843,910.09843 0 0 0 16.287,4.31814 c 7.4033,1.84982 13.5718,3.57787 13.6947,3.57787 0.8655,0.86431 13.3283,40.71651 17.5235,56.01748 1.6018,5.80096 2.8382,10.73533 2.7147,10.73533 -0.1269,0.12518 -1.4822,-1.97386 -3.0857,-4.81147 -14.4372,-25.41893 -37.2643,-51.20715 -63.6705,-71.93753 -3.4533,-2.46548 -6.0451,-4.68685 -6.0451,-4.80976 z m 60.7078,16.78095 c 0.6174,0 3.3321,0.37042 6.6618,1.11012 20.9768,4.68856 58.6116,11.84544 82.6718,15.91778 4.0723,0.61622 7.2815,1.3582 7.2815,1.60344 0,0.24808 -1.4823,1.11012 -3.3338,2.09847 -4.0701,2.09677 -20.4823,11.84374 -25.91,15.54622 -13.6975,9.13074 -26.0352,19.00175 -34.9201,27.88555 -3.5779,3.57901 -6.6641,6.54009 -6.6641,6.54009 0,0 -0.738,-2.09677 -1.3577,-4.6897 -4.4393,-17.15137 -13.6952,-42.57031 -22.0857,-60.4608 -1.3576,-2.83704 -2.4689,-5.42883 -2.4689,-5.67464 0,0.24638 0,0.12347 0.1252,0.12347 z m 106.8553,20.35939 c 0.7403,0.24581 1.9745,4.44162 4.4417,13.69526 4.5662,17.89278 6.6641,37.88175 5.9238,56.51365 -0.2481,5.18245 -0.4939,9.99392 -0.742,10.61242 l -0.3692,1.23245 -6.4161,-2.09676 c -13.2031,-4.19524 -34.672,-10.48951 -53.0564,-15.67083 -10.4901,-2.83817 -19.0017,-5.4294 -19.0017,-5.67577 0,-0.74141 15.3009,-16.04125 21.8399,-21.83993 12.4599,-10.98341 46.2688,-37.14148 47.38,-36.77049 z m 8.514,1.23246 c 0.371,-0.36815 51.0842,8.39047 74.1583,12.83322 17.1525,3.33093 42.0764,8.51395 43.5564,9.13188 0.7403,0.24581 -1.8515,1.72635 -10.1191,5.42769 -32.5741,14.68476 -56.76,27.88556 -80.8185,43.92794 -6.2931,4.19524 -11.5996,7.64964 -11.7225,7.64964 -0.1229,0 -0.2464,-3.57731 -0.2464,-7.89658 0,-23.44337 -4.6891,-47.13483 -13.3282,-67.1238 -0.8632,-1.97443 -1.6035,-3.82481 -1.48,-3.94999 z m 131.1636,25.91339 c 0.371,0.36985 -1.2342,10.36548 -2.7147,16.28706 -4.4416,18.38553 -16.41,45.65656 -31.0919,71.320171 -2.5935,4.56565 -4.9372,8.26757 -5.1858,8.39047 -0.2441,0.1229 -3.5762,-1.72862 -7.4022,-3.94943 -14.3126,-8.39047 -30.5996,-16.28705 -48.3689,-23.69145 -4.9338,-2.09677 -9.2537,-3.82539 -9.3772,-4.07006 -0.8654,-0.74141 38.8673,-27.023521 59.844,-39.609231 16.6581,-10.11739 43.8028,-25.17199 44.2967,-24.67753 z m 9.3771,1.47997 c 1.1113,0 23.5686,6.17024 35.2888,9.62521 28.998,8.63799 62.3124,20.85271 84.0294,30.72372 l 9.0061,4.07347 -6.2909,1.4794 c -53.0564,12.21472 -98.4648,26.283251 -142.2693,44.050841 -3.5784,1.48054 -6.787,2.7147 -7.0311,2.7147 -0.2481,0 0.986,-2.8376 2.5901,-6.29371 13.203,-28.009021 21.717,-57.252781 23.8126,-82.178961 0.1258,-2.34485 0.4933,-4.19467 0.8643,-4.19467 z m -223.5817,51.3312 c 0.3693,-0.37099 17.5212,3.70191 26.7754,6.29086 14.0663,3.95 43.9257,13.943351 43.9257,14.684761 0,0.1229 -3.3304,2.96107 -7.2775,6.41718 -16.1642,13.44945 -31.7127,27.63747 -50.3457,45.65314 -5.5529,5.30764 -10.2403,9.62578 -10.4861,9.62578 -0.2481,0 -0.3693,-0.74198 -0.2481,-1.72863 2.8376,-20.73037 2.2225,-47.38176 -1.7263,-74.404141 -0.3716,-3.45611 -0.7409,-6.41605 -0.6174,-6.53895 z m 360.42338,0.37099 c 0.2441,0.24524 -7.89828,13.077891 -13.08018,20.357111 -7.4021,10.61128 -18.2638,24.68038 -42.8184,55.52757 -12.9533,16.28592 -27.5157,34.67259 -32.326,40.84168 -4.9378,6.1691 -9.0079,11.35042 -9.133,11.35042 -0.1229,0 -1.7247,-2.21967 -3.4533,-4.9338 -13.8204,-20.73038 -30.3556,-38.86896 -49.9747,-55.15602 -3.7013,-3.08568 -7.7714,-6.41718 -9.129,-7.40439 -1.3577,-0.98665 -2.4689,-1.97387 -2.4689,-2.09677 0,-0.36928 20.9745,-9.37883 36.8945,-15.79373 27.8867,-11.35269 65.8868,-24.92505 94.3926,-33.686511 14.9305,-4.68799 30.84829,-9.25365 31.09638,-9.00556 z m 9.50002,2.46604 c 0.49219,-0.12233 3.45497,1.35821 7.03341,3.45383 29.98459,17.151371 59.34954,39.239381 82.54881,61.943621 6.53895,6.41718 22.7031,23.19813 22.45502,23.32103 0,0 -5.67578,0.49333 -12.33763,0.98608 -51.94742,3.95 -118.45331,14.92999 -182.37081,30.35331 -4.3181,0.98607 -8.1423,1.85038 -8.3904,1.85038 -0.2441,0 4.5662,-4.81146 10.6135,-10.61014 37.5096,-36.15312 54.6622,-58.98026 74.89637,-99.70018 2.83703,-6.044491 5.30592,-11.226941 5.55173,-11.597931 -0.1229,0 -0.1229,0 0,0 z m -274.7906,28.134781 c 1.7286,0.36814 17.7693,7.89772 29.8611,13.9422 11.1052,5.5506 27.7638,14.43667 28.627,15.1758 0.1229,0.12291 -5.801,3.20803 -13.0779,6.78704 -23.1993,11.59849 -43.0642,22.57905 -63.7951,35.16533 -5.9222,3.57901 -10.8577,6.5418 -10.9806,6.5418 -0.4939,0 -0.371,-0.49617 2.9611,-6.5418 11.1057,-20.23421 19.9884,-44.41898 25.0491,-67.98753 0.4916,-1.85039 0.986,-3.08284 1.3553,-3.08284 z m -16.0412,2.95994 c 0.371,0.37098 -3.8243,15.54678 -6.4144,23.81435 -5.0607,15.67083 -13.574,35.28938 -21.8399,50.09647 -1.9767,3.45326 -4.9372,8.51281 -6.5412,11.35041 l -3.084,4.93551 -6.9099,-6.66129 c -8.0195,-7.77424 -14.5608,-12.58628 -22.9495,-16.90612 -3.3338,-1.72578 -5.9239,-3.20803 -5.9239,-3.45326 0,-0.98722 21.0997,-20.11245 37.2638,-33.93232 11.598,-9.99505 36.0297,-29.6136 36.399,-29.24375 z m 98.0978,40.34949 6.0468,3.94716 c 13.8165,9.00897 30.1035,20.97675 42.5686,31.46456 7.0311,5.79811 20.6035,18.01568 23.3205,20.97675 l 1.4782,1.60572 -9.9922,2.83703 c -56.5136,15.66913 -100.1935,29.61247 -151.1543,48.36899 -5.6757,2.09676 -10.4883,3.82425 -10.8593,3.82425 -0.738,0 -1.3571,0.61622 11.3538,-11.10632 32.5758,-29.98117 61.4474,-63.05202 82.9181,-95.25685 z m -25.7893,6.41605 c 0.2458,0.2458 -16.6581,24.05959 -26.7772,37.50961 -12.0918,16.04125 -33.5624,42.93959 -48.3689,60.45967 -6.168,7.28149 -11.4728,13.32712 -11.7209,13.45116 -0.371,0.1229 -0.4939,-1.72749 -0.4939,-4.56566 0,-14.9317 -3.8242,-30.8489 -10.4883,-44.42069 -2.8382,-5.67577 -3.3321,-7.03341 -2.713,-7.64964 2.3437,-2.09847 38.2499,-22.58133 60.953,-34.79605 15.3004,-8.14353 39.2359,-20.23535 39.6092,-19.9884 z m -155.9669,38.25102 c 0.371,0 3.2092,1.4794 6.4178,3.20802 7.8965,4.31814 14.9299,9.13018 21.2225,14.31377 0.2458,0.24581 -2.9611,2.83817 -7.1563,5.92101 -11.7225,8.39048 -29.4901,21.84107 -39.8533,30.10864 -10.8611,8.63742 -11.2287,8.88379 -9.9962,7.03341 8.1446,-12.46281 12.2147,-19.49622 16.5351,-28.50292 3.8243,-8.01949 7.6485,-17.52122 10.3632,-25.78879 0.9867,-3.57844 2.2214,-6.29314 2.4672,-6.29314 z m 41.5842,32.57411 c 0.6151,-0.12176 1.3577,0.98722 4.6874,5.92386 7.0335,10.4861 12.4629,24.55463 13.8222,35.90618 l 0.2441,2.46889 -16.9021,6.54009 c -30.2327,11.72083 -58.1171,23.32046 -76.9983,31.95617 -5.3042,2.4689 -14.559,6.90994 -20.604,9.87329 -6.0468,3.08284 -10.9823,5.42769 -10.9823,5.30479 0,-0.12291 3.8243,-2.96108 8.5128,-6.41718 36.8963,-26.7743 68.853,-56.14266 92.7903,-85.50875 2.5918,-3.08569 4.9372,-5.92386 5.1818,-6.04677 z m -19.1252,4.6897 c 0.4939,0.49332 -13.5724,16.40996 -23.197,26.1575 -23.8143,24.30939 -47.3823,43.31228 -76.6267,61.82128 -3.7013,2.34371 -7.0322,4.44048 -7.4032,4.68856 -0.8643,0.49332 0.2458,-0.74141 13.079,-14.68475 8.1447,-8.76089 14.3132,-16.16415 21.3466,-25.29376 4.6886,-6.04505 5.5529,-6.90936 12.3405,-11.72367 18.1386,-13.07961 59.9669,-41.45962 60.4608,-40.96516 z"
       id="path21"
       style="opacity:1;fill:#ffffff;fill-opacity:1;stroke-width:0.56900001"
       inkscape:connector-curvature="0" />
    <text
       id="text4530"
       y="426.49628"
       x="593.70868"
       style="font-style:normal;font-variant:normal;font-weight:normal;font-stretch:normal;font-size:627.16552734px;line-height:1.25;font-family:Calibri;-inkscape-font-specification:'Calibri, Normal';font-variant-ligatures:normal;font-variant-caps:normal;font-variant-numeric:normal;text-align:start;letter-spacing:0px;word-spacing:0px;writing-mode:lr-tb;text-anchor:start;fill:#ffffff;fill-opacity:1;stroke:none;stroke-width:3.26648712"
       xml:space="preserve"><tspan
         style="fill:#ffffff;fill-opacity:1;stroke-width:3.26648712"
         y="426.49628"
         x="593.70868"
         id="tspan4528"
         sodipodi:role="line">DeviceSQL</tspan></text>
    <text
       xml:space="preserve"
       style="font-style:normal;font-variant:normal;font-weight:normal;font-stretch:normal;font-size:218.39355469px;line-height:1.25;font-family:Calibri;-inkscape-font-specification:'Calibri, Normal';font-variant-ligatures:normal;font-variant-caps:normal;font-variant-numeric:normal;text-align:start;letter-spacing:0px;word-spacing:0px;writing-mode:lr-tb;text-anchor:start;fill:#ffffff;fill-opacity:1;stroke:none;stroke-width:1.13746655"
       x="-310.12018"
       y="876.78833"
       id="text4542"><tspan
         sodipodi:role="line"
         x="-310.12018"
         y="876.78833"
         style="fill:#ffffff;fill-opacity:1;stroke-width:1.13746655"
         id="tspan4544">SELECT * FROM Anywhere</tspan></text>
  </g>
</svg>
