<?xml version="1.0" encoding="UTF-8" standalone="no"?>
<svg
   xmlns:osb="http://www.openswatchbook.org/uri/2009/osb"
   xmlns:dc="http://purl.org/dc/elements/1.1/"
   xmlns:cc="http://creativecommons.org/ns#"
   xmlns:rdf="http://www.w3.org/1999/02/22-rdf-syntax-ns#"
   xmlns:svg="http://www.w3.org/2000/svg"
   xmlns="http://www.w3.org/2000/svg"
   xmlns:xlink="http://www.w3.org/1999/xlink"
   xmlns:sodipodi="http://sodipodi.sourceforge.net/DTD/sodipodi-0.dtd"
   xmlns:inkscape="http://www.inkscape.org/namespaces/inkscape"
   width="11910.79"
   height="1662.8269"
   viewBox="0 0 7042.6165 983.30661"
   version="1.1"
   id="svg27"
   sodipodi:docname="DeviceSQL_ControlPanel_SetupHeader.svg"
   inkscape:version="0.92.2 (5c3e80d, 2017-08-06)"
   inkscape:export-filename="C:\Users\liwt_admin\Documents\GitHub\DeviceSQL\DeviceSQL_ControlPanel_SetupHeader.png"
   inkscape:export-xdpi="4.0300002"
   inkscape:export-ydpi="4.0300002">
  <metadata
     id="metadata33">
    <rdf:RDF>
      <cc:Work
         rdf:about="">
        <dc:format>image/svg+xml</dc:format>
        <dc:type
           rdf:resource="http://purl.org/dc/dcmitype/StillImage" />
        <dc:title />
      </cc:Work>
    </rdf:RDF>
  </metadata>
  <defs
     id="defs31">
    <linearGradient
       inkscape:collect="always"
       id="linearGradient864">
      <stop
         style="stop-color:#1978d7;stop-opacity:1;"
         offset="0"
         id="stop860" />
      <stop
         style="stop-color:#1978d7;stop-opacity:0;"
         offset="1"
         id="stop862" />
    </linearGradient>
    <linearGradient
       id="linearGradient4586"
       osb:paint="solid">
      <stop
         style="stop-color:#000000;stop-opacity:1;"
         offset="0"
         id="stop4584" />
    </linearGradient>
    <linearGradient
       inkscape:collect="always"
       xlink:href="#linearGradient864"
       id="linearGradient866"
       x1="-4318.2153"
       y1="291.45212"
       x2="2725.187"
       y2="291.45212"
       gradientUnits="userSpaceOnUse"
       gradientTransform="translate(1593.0283)" />
  </defs>
  <sodipodi:namedview
     pagecolor="#ffffff"
     bordercolor="#666666"
     borderopacity="1"
     objecttolerance="10"
     gridtolerance="10"
     guidetolerance="10"
     inkscape:pageopacity="0"
     inkscape:pageshadow="2"
     inkscape:window-width="1920"
     inkscape:window-height="1057"
     id="namedview29"
     showgrid="false"
     inkscape:zoom="0.08032733"
     inkscape:cx="7254.8795"
     inkscape:cy="-1184.3152"
     inkscape:window-x="-8"
     inkscape:window-y="-8"
     inkscape:window-maximized="1"
     inkscape:current-layer="g4538"
     fit-margin-top="0"
     fit-margin-left="0"
     fit-margin-right="0"
     fit-margin-bottom="0" />
  <g
     id="g4538"
     transform="translate(4317.9169,200.20117)">
    <rect
       style="opacity:1;fill:url(#linearGradient866);fill-opacity:1;fill-rule:nonzero;stroke:none;stroke-width:0;stroke-linejoin:round;stroke-miterlimit:4;stroke-dasharray:none;stroke-opacity:1"
       id="rect4558"
       width="7043.4023"
       height="983.30658"
       x="-2725.187"
       y="-200.20117"
       transform="scale(-1,1)" />
    <path
       style="fill:#ffffff;fill-opacity:1;stroke-width:1.33583188"
       id="path1334"
       d="m 2435.7162,-5.5955044 -66.841,-38.6002196 v 27.5355 h -341.643 l 66.5219,-70.28077 c 5.6612,-4.53781 13.0683,-7.7211 20.688,-7.89744 30.8243,0 49.1291,-0.007 55.8672,-0.0226 4.5672,13.01235 16.8354,22.40457 31.4199,22.40457 18.4506,0 33.424,-14.972 33.424,-33.429186 0,-18.4651 -14.972,-33.43178 -33.424,-33.43178 -14.5845,0 -26.8527,9.38689 -31.4199,22.38856 l -55.2127,-0.009 c -14.9639,0 -30.6438,8.21001 -40.6239,17.834676 0.2724,-0.28588 0.5557,-0.59043 -0.023,0.004 -0.2101,0.23777 -70.5773,74.55811 -70.5773,74.55811 -5.6493,4.53113 -13.0523,7.69438 -20.6667,7.87607 h -38.6485 c -5.1229,-25.53179 -27.6691,-44.76778 -54.7144,-44.76778 -30.8349,0 -55.8297,24.99475 -55.8297,55.8204096 0,30.8349204 24.9948,55.8310204 55.8297,55.8310204 27.0507,0 49.5967,-19.252 54.7196,-44.8050804 h 37.9712 c 0.097,0 0.1943,0.004 0.2939,0 h 83.985 c 7.5996,0.19382 14.9934,3.36096 20.6373,7.8974404 0,0 70.3502,74.31494 70.568,74.55544 0.5636,0.5971 0.283,0.2858 0,0 9.9799,9.6234 25.6666,17.828104 40.6332,17.828104 l 53.2088,-0.011 v 22.4112 h 66.8585 V 61.243736 h -66.8585 v 22.3818 c 0,0 -14.0142,-0.025 -53.8605,-0.025 -7.6211,-0.1751 -15.0362,-3.3543 -20.6949,-7.8921 L 2110.7691,5.4142556 h 258.0946 V 32.993836 Z"
       inkscape:connector-curvature="0" />
    <path
       d="m 1651.8828,17.896736 -77.3849,25.2689 -67.3238,29.7135 -18.8348,4.9724 c -4.7968,4.5627 -9.8264,9.184 -15.2663,13.8632 -5.9661,5.1469 -11.5228,9.827004 -15.7934,13.218804 -4.7375,3.7438 -11.7566,10.7627 -15.3243,15.2073 -5.323,6.6679 -9.5343,13.7453 -11.3477,19.1857 -3.2173,9.827 -1.6373,19.7702 4.5627,28.9542 7.9548,11.6978 23.8065,23.6297 42.2893,31.7601 9.4178,4.1538 25.2689,9.4761 37.2008,12.4588 19.8282,5.0306 58.1994,10.4705 79.3145,11.29 4.2693,0.1753 10.0021,0.1753 10.2354,0 0.4685,-0.2935 3.7441,-6.5515 7.5467,-14.3304 12.9852,-26.4975 22.3437,-51.3567 27.4321,-72.5889 3.0415,-12.8676 5.4393,-30.0061 7.0181,-50.302004 0.4102,-5.674 0.585,-24.6839 0.2341,-31.1185 -0.5268,-10.5283 -1.4627,-19.0676 -2.9239,-27.4321 -0.2341,-1.2286 -0.2934,-2.3402 -0.1758,-2.3984 0.2333,-0.1754 0.9351,-0.4092 10.4694,-3.1591 l -1.9293,-4.5616 v 0 0 z m -17.6645,10.3538 c 0.7018,0 2.5729,17.9565 3.0406,29.3048 0.1177,2.3979 0.058,3.9771 -0.058,3.9771 -0.4675,0 -9.8853,-5.5561 -16.6107,-9.7673 -5.8496,-3.6853 -16.9626,-11.0556 -18.7172,-12.4593 -0.5861,-0.4092 -0.5278,-0.4674 4.2693,-2.1058 8.1295,-2.7496 27.4329,-8.9495 28.0762,-8.9495 z m -39.4237,12.9855 c 0.5268,0 1.8711,0.7595 5.0884,2.7488 12.049,7.5453 28.4274,16.6705 35.4463,19.7125 2.1638,0.9357 2.3971,0.5842 -2.5737,3.9774 -10.6456,7.2527 -23.9241,14.3883 -40.1849,21.583 -2.8656,1.2869 -5.2634,2.2809 -5.3217,2.2809 -0.1166,0 0.2333,-1.4614 0.7007,-3.2165 3.9192,-14.5656 6.1423,-29.3051 6.2599,-41.1206 0.058,-5.8496 0.058,-5.8496 0.585,-6.0241 -0.1176,0.059 -0.059,0.059 0,0.059 z m -8.1301,3.0997 c 0.3498,0.3503 0.1165,13.4532 -0.3517,17.0209 -1.0528,8.5401 -2.6906,16.4946 -5.3803,25.4447 -0.6436,2.1627 -1.2294,3.9772 -1.3451,4.0937 -0.2352,0.2921 -8.2486,-7.5456 -10.8806,-10.5871 -4.5627,-5.2645 -8.1298,-10.5288 -10.7621,-15.6758 -1.3454,-2.6322 -3.4506,-7.7789 -3.2756,-7.9548 0.9357,-0.6433 31.7612,-12.5752 31.9954,-12.3416 z m -38.2544,15.0322 c 0.058,0 0.1165,0 0.1758,0.058 0.1166,0.1171 0.5268,1.0533 0.8778,2.1058 1.871,5.0889 6.0818,12.5758 9.7093,17.3723 3.9774,5.2646 9.1837,10.8792 13.511,14.5643 1.4044,1.1698 2.6905,2.2808 2.8656,2.4566 0.3517,0.3512 0.4685,0.2922 -9.0661,3.9192 -11.0537,4.211204 -23.1038,8.422504 -36.9082,12.867604 a 1841.0193,1841.0193 0 0 0 -9.8836,3.2173 c -0.5274,0.1759 -0.3515,-0.117 1.1692,-2.5146 6.8433,-10.7045 17.2545,-31.702804 23.1041,-46.559904 0.9945,-2.5737 1.9887,-5.1469 2.1645,-5.732 0.2342,-0.8194 0.526,-1.1115 1.2861,-1.5212 0.4095,-0.116 0.8195,-0.2336 0.9945,-0.2336 z m -11.6973,4.8548 c 0.1751,0.1176 -2.8081,6.3756 -5.7328,12.1078 -5.674,11.0548 -11.8739,21.9351 -20.1796,35.153904 -1.4037,2.2808 -2.7486,4.3871 -2.9244,4.621 -0.2922,0.4097 -0.4098,0.2921 -1.3454,-1.5208 -1.9888,-3.9191 -3.6271,-8.9498 -4.5042,-13.5708 -0.8777,-4.562704 -0.7019,-12.517004 0.2929,-17.430104 0.7596,-3.6262 0.7018,-3.5676 2.4564,-4.4453 7.4868,-3.8018 31.703,-15.1496 31.9371,-14.9157 z m 100.8979,4.095 v 2.4564 c 0,13.0438 -1.4037,30.942104 -3.4517,43.986404 -0.351,2.2808 -0.6444,4.1519 -0.7019,4.2113 0,0 -1.696,-0.4675 -3.6847,-1.0533 -8.7734,-2.7494 -18.3078,-6.7853 -26.9064,-11.5223 -5.6746,-3.1002 -13.9212,-8.189704 -13.6868,-8.423804 0.057,-0.058 2.5146,-1.3449 5.3802,-2.8659 11.4659,-5.9658 22.4613,-12.3999 31.9957,-18.7755 3.5682,-2.3984 8.9484,-6.2582 10.1196,-7.3115 z m -145.0601,17.3125 c 0.2338,0 0.1753,0.468 -0.1756,2.5737 -0.2342,1.5213 -0.5263,4.3289 -0.6425,6.2582 -0.4691,8.540204 0.9357,14.857704 5.1469,23.514104 1.1699,2.3984 2.1063,4.3871 2.047,4.4451 -0.4097,0.3515 -39.1305,11.6994 -51.2976,15.033 -3.6262,0.994 -6.7842,1.8716 -7.0194,1.9294 -0.4087,0.1176 -0.4674,0.059 -0.2922,-0.936 1.3452,-8.5976 7.8966,-19.8282 17.021,-29.3043 6.0834,-6.3167 10.9385,-10.001504 19.2442,-14.740104 5.9661,-3.3918 15.1493,-8.4799 15.8511,-8.7146 5e-4,-0.059 0.059,-0.059 0.1171,-0.059 z m 91.2475,16.319304 c 0.058,-0.058 1.4619,0.7026 3.158,1.6966 12.5175,7.2532 29.9478,13.98 44.8039,17.4306 l 1.3462,0.2929 -1.8722,1.0517 c -7.7789,4.3289 -33.3399,14.9739 -59.4852,24.7427 -3.8026,1.4031 -7.5456,2.8076 -8.2485,3.0997 -0.7018,0.2921 -1.3454,0.468 -1.3454,0.4097 0,-0.059 1.0536,-2.1063 2.3979,-4.621 7.3114,-13.687 14.682,-30.357 18.4253,-41.9386 0.4691,-1.1113 0.7607,-2.1052 0.82,-2.1643 z m -9.3002,3.042 c 0.059,0.06 -0.4092,1.2869 -0.9945,2.6905 -5.0884,12.3417 -11.7574,25.7957 -20.2967,40.8862 -2.1638,3.8608 -3.9774,6.9611 -4.0368,6.9611 -0.057,0 -1.8128,-1.0536 -3.9183,-2.3402 -12.401,-7.6041 -23.397,-16.9626 -30.5909,-26.029 l -1.0533,-1.2868 5.3222,-1.4625 c 19.0687,-5.2052 35.2702,-10.8204 51.3562,-17.7222 2.2816,-0.9362 4.1538,-1.6971 4.2121,-1.6971 z m 57.7899,20.1797 c 0,0 0.059,0.058 0,0 0.058,1.3454 -2.9249,13.3949 -5.3818,22.1093 -2.047,7.3115 -3.8026,13.0443 -7.0189,23.1626 -1.4036,4.4464 -2.6312,8.1304 -2.6905,8.1304 -0.058,0 -0.4092,-0.058 -0.7601,-0.1745 -17.3718,-3.1596 -32.9308,-7.5462 -47.5538,-13.395 -4.095,-1.6383 -9.9438,-4.2706 -10.2947,-4.5627 -0.1165,-0.1181 3.3932,-1.7548 7.8383,-3.6853 26.6138,-11.6398 54.2217,-24.8592 63.697,-30.5321 1.111,-0.7021 1.9887,-1.0527 2.1645,-1.0527 z m -133.4197,4.5627 c 0.1171,0.1165 -7.3115,10.8209 -17.7235,25.3851 -3.6262,5.089 -7.8375,11.0548 -9.4164,13.2774 -1.5796,2.2228 -3.9775,5.7325 -5.3229,7.8383 l -2.4577,3.8021 -2.6323,-2.2226 c -3.1003,-2.5743 -8.4808,-8.0721 -10.8789,-11.1139 -5.0307,-6.2579 -8.4226,-12.8676 -9.7679,-18.8917 -0.6436,-2.8081 -0.6436,-4.2126 -0.059,-4.3871 0.8772,-0.2339 16.4946,-3.9192 31.1185,-7.3123 8.1304,-1.8711 17.5468,-4.0937 20.9395,-4.9126 3.3929,-0.8202 6.1428,-1.4627 6.201,-1.4627 z m 7.4866,2.8661 1.8711,2.1055 c 8.4239,9.4173 17.022,16.379 27.4335,22.4608 1.8721,1.0535 3.2755,1.9887 3.1579,2.0483 -0.4083,0.2921 -36.1478,12.9836 -52.7007,18.7161 -9.2997,3.2753 -16.9627,5.9073 -17.0203,5.9073 -0.058,0 -0.5851,-0.3504 -1.171,-0.7601 l -1.0521,-0.7606 1.696,-2.4561 c 5.4979,-7.9551 12.401,-16.67 27.4332,-34.8025 z m 46.6772,33.3982 c 0.057,-0.058 2.6312,0.8772 5.7894,2.0483 7.605,2.8656 13.6285,4.6785 21.7012,6.726 9.9438,2.5155 24.3324,4.9721 32.8143,5.6737 1.2869,0.1165 1.9887,0.2341 1.7546,0.4097 -0.4103,0.2341 -9.0076,3.1003 -15.3249,5.089 -10.0614,3.1579 -40.7691,12.224 -65.8033,19.419 -4.621,1.3451 -8.5986,2.4567 -8.8325,2.5147 -0.5842,0.1176 -2.5152,-0.4097 -2.5152,-0.6436 0,-0.1162 1.4037,-1.9293 3.1002,-3.9183 8.4223,-10.0609 16.7873,-21.291 23.748,-31.9366 1.9296,-2.9255 3.5682,-5.3233 3.5682,-5.3819 z m -10.2955,0.2932 c 0.058,0.058 -4.0942,6.726 -11.3464,18.1902 -3.1008,4.8548 -6.5519,10.353 -7.7806,12.2834 -1.1698,1.8716 -2.9243,4.7968 -3.9183,6.4341 l -1.6966,2.9834 -0.8772,-0.2341 c -2.1062,-0.585 -16.9043,-5.7913 -20.8234,-7.3703 -4.8551,-1.9304 -9.8853,-4.2695 -13.6291,-6.2582 -4.6787,-2.5155 -10.5275,-6.2593 -10.0601,-6.3756 0.1168,-0.058 8.1305,-2.2233 17.781,-4.8548 25.6198,-6.9614 39.8329,-10.9968 49.1339,-13.9212 1.6966,-0.5265 3.1585,-0.9362 3.2168,-0.8769 z m 72.8224,17.0786 h 0.058 c 0.2341,0.5856 -9.2409,26.9067 -12.6934,35.2122 -0.7593,1.8716 -1.0509,2.3404 -1.4611,2.2808 -0.9945,-0.057 -14.7396,-1.9879 -23.1049,-3.2165 -14.5637,-2.2226 -39.0137,-6.4932 -45.1549,-7.8963 l -1.4036,-0.2921 8.7141,-1.99 c 18.718,-4.2113 27.7256,-6.4921 36.8499,-9.2997 11.5233,-3.5094 22.9298,-7.8966 34.452,-13.2774 1.8132,-0.8191 3.3341,-1.4624 3.7436,-1.521 z"
       id="path7"
       style="fill:#ffffff;fill-opacity:1;stroke-width:0.26972768"
       inkscape:connector-curvature="0" />
    <path
       d="m 1572.1,-162.49202 c -1.2869,-0.17451 -22.0521,7.31232 -35.4463,12.75138 -18.0744,7.37085 -32.1116,14.39024 -40.7688,20.47206 -3.2164,2.28217 -7.2532,6.31757 -7.8957,7.89655 -0.2339,0.58504 -0.3514,1.28687 -0.3514,1.9887 l 7.8382,7.42857 18.6585,5.96611 44.3955,7.955076 50.7703,8.71544 0.5268,-4.38685 c -0.175,0 -0.2927,-0.0583 -0.4666,-0.0583 l -6.6699,-1.05329 -1.3443,-2.39788 c -6.9023,-12.166596 -14.5062,-27.257596 -18.9513,-37.435226 -3.4507,-7.89655 -6.7265,-17.02036 -8.5401,-23.57178 -0.9945,-3.9774 -1.1111,-4.21126 -1.7535,-4.26952 v -0.001 0 z m -0.937,2.984 h 0.06 c 0.057,0.0577 0.2916,1.69659 0.526,3.62568 0.9934,8.19002 2.8081,16.08521 5.6737,24.62533 2.1638,6.43436 2.1638,6.08371 -0.3509,5.32281 -5.9661,-1.63725 -32.6966,-6.25823 -52.0575,-8.94876 -3.1002,-0.40972 -5.7325,-0.81889 -5.7325,-0.87715 -0.2338,-0.23386 13.9792,-7.66297 20.238,-10.58681 8.0133,-3.68583 30.0061,-12.86898 31.6431,-13.1611 z m -56.3858,26.20405 2.2822,0.75955 c 12.3993,4.21207 43.5747,10.17844 60.7723,11.58211 1.9296,0.17559 3.5683,0.35145 3.6257,0.35145 0.058,0.0583 -1.5784,0.93569 -3.6847,1.92963 -8.305,4.153 -17.4301,9.24195 -23.7474,13.16109 -1.8711,1.16928 -3.5682,2.10577 -3.8016,2.10577 -0.2341,0 -1.4619,-0.23412 -2.7488,-0.40971 l -2.3396,-0.35146 -5.8485,-5.73252 c -10.2947,-10.00151 -18.3668,-17.72219 -21.4671,-20.64739 z m -2.3388,1.81284 8.2472,10.29496 c 4.5034,5.67373 9.0658,11.23012 10.0611,12.45792 0.9934,1.22915 1.8129,2.2239 1.7546,2.28216 -0.2341,0.17532 -11.9317,-2.1063 -18.1327,-3.50942 -6.3756,-1.46274 -9.0076,-2.16457 -12.9265,-3.39237 l -3.2173,-1.05329 v -0.81943 c 0.058,-3.91914 5.0307,-9.76792 13.4532,-15.73348 z m 70.0728,14.03824 c 0.2344,0 0.526,0.52624 1.2278,2.1055 1.9887,4.38658 8.19,16.202536 9.7094,18.483356 0.4693,0.76117 1.2869,0.81943 -6.9595,-0.52597 -19.8282,-3.217846 -26.2046,-4.269516 -26.2046,-4.386576 0,-0.0583 0.5851,-0.46798 1.3454,-0.8777 6.142,-3.39182 12.3417,-7.72068 17.8403,-12.34165 1.3455,-1.11155 2.5738,-2.1643 2.8071,-2.34016 0.058,-0.1168 0.1759,-0.17506 0.2341,-0.1168 z"
       id="path14"
       style="fill:#ffffff;fill-opacity:1;stroke-width:0.26972768"
       inkscape:connector-curvature="0" />
    <path
       d="m 1488.3973,-122.19092 c 0,0 -1.286,2.04804 -0.058,5.08976 0.7612,1.8711 2.9835,4.15192 5.4981,6.49207 0,0 26.0288,25.385156 29.1876,29.012176 14.3883,16.61119 20.6473,32.98905 21.2324,55.56715 0.3509,14.50595 -2.399,27.2570496 -9.242,42.0557 -12.1663,26.5555 -37.8447,55.86 -77.4434,88.381604 l 5.7916,-1.9304 c 3.7433,-2.808104 8.8322,-5.790304 20.7642,-12.341704 27.5492,-15.0918 58.5501,-28.9542 96.5701,-43.226 54.7469,-20.5896 144.7668,-44.6887404 196.0046,-52.5256704 l 5.3236,-0.81944 -0.8194,-1.28687 c -4.6785,-7.2532396 -7.8966,-11.7566196 -11.7575,-16.5529196 -11.2295,-13.92118 -24.8573,-25.20955 -41.5283,-34.56856 -22.9287,-12.80911 -52.585,-22.81115 -90.1357,-30.23972 -7.0774,-1.40447 -22.6364,-4.09473 -35.2704,-6.02491 -26.7897,-4.15191 -44.1032,-7.018576 -63.1711,-10.294146 -6.843,-1.17035 -17.0799,-2.92466 -23.8649,-4.38658 -3.5095,-0.76118 -10.2354,-2.34016 -15.4997,-4.15327 -4.2112,-1.63859 -10.2949,-3.27638 -11.5818,-8.24827 z m 15.0918,14.62355 c 0.058,-0.0577 0.9934,0.29212 2.2226,0.70183 2.2225,0.75956 5.0884,1.63725 8.4818,2.57375 a 431.42134,431.42134 0 0 0 7.7207,2.04696 c 3.5094,0.87688 6.4335,1.69605 6.4918,1.69605 0.4103,0.40971 6.3181,19.301166 8.3068,26.554416 0.7593,2.74987 1.3454,5.08895 1.2869,5.08895 -0.06,0.0593 -0.7026,-0.93568 -1.4628,-2.28082 -6.8437,-12.04954 -17.6647,-24.27414 -30.1822,-34.101126 -1.637,-1.16873 -2.8656,-2.22174 -2.8656,-2.28001 z m 28.7778,7.954806 c 0.2927,0 1.5795,0.17559 3.1579,0.52624 9.9438,2.22256 27.7842,5.61519 39.1896,7.54563 1.9305,0.29212 3.4517,0.64384 3.4517,0.7601 0,0.1176 -0.7026,0.52624 -1.5803,0.99475 -1.9294,0.99395 -9.7094,5.61439 -12.2823,7.3695 -6.4932,4.32832 -12.3417,9.00756 -16.5535,13.21882 -1.6961,1.69658 -3.159,3.10025 -3.159,3.10025 0,0 -0.3499,-0.99395 -0.6436,-2.2231 -2.1044,-8.1304 -6.4921,-20.17995 -10.4695,-28.66072 -0.6436,-1.34487 -1.1704,-2.57347 -1.1704,-2.69 0,0.1168 0,0.0585 0.059,0.0585 z m 50.6535,9.65113 c 0.3509,0.11652 0.936,2.1055 2.1055,6.49207 2.1646,8.48186 3.1591,17.9574 2.8081,26.78963 -0.1176,2.45668 -0.2341,4.7375 -0.3517,5.03069 l -0.175,0.58423 -3.0415,-0.99395 c -6.2588,-1.9887 -16.4359,-4.97242 -25.1508,-7.42857 -4.9727,-1.3454 -9.0075,-2.57374 -9.0075,-2.69053 0,-0.35146 7.2532,-7.60416 10.353,-10.35296 5.9064,-5.20655 21.9331,-17.60648 22.4599,-17.43061 z m 4.0359,0.58423 c 0.1759,-0.17452 24.2159,3.9774 35.1539,6.08344 8.1309,1.57898 19.9458,4.03593 20.6474,4.32886 0.3509,0.11652 -0.8777,0.81835 -4.7968,2.57293 -15.4414,6.96113 -26.9064,13.21882 -38.3111,20.82352 -2.9832,1.9887 -5.4986,3.62622 -5.5569,3.62622 -0.058,0 -0.1168,-1.69579 -0.1168,-3.74328 0,-11.11305 -2.2228,-22.34371 -6.3181,-31.81924 -0.4092,-0.93596 -0.7601,-1.81311 -0.7016,-1.87245 z m 62.1766,12.28394 c 0.1759,0.17532 -0.5851,4.91363 -1.2869,7.72068 -2.1055,8.71544 -7.779,21.64295 -14.7387,33.80848 -1.2294,2.16429 -2.3405,3.91915 -2.4583,3.9774 -0.1157,0.0583 -1.6953,-0.81943 -3.5089,-1.87218 -6.7847,-3.9774 -14.5054,-7.72068 -22.9287,-11.23065 -2.3388,-0.99394 -4.3866,-1.81338 -4.4452,-1.92936 -0.4102,-0.35146 18.4246,-12.81018 28.3684,-18.77628 7.8965,-4.79603 20.7642,-11.93249 20.9983,-11.69809 z m 4.4451,0.70156 c 0.5268,0 11.1724,2.92493 16.7282,4.56271 13.7462,4.09474 29.5385,9.88498 39.8332,14.56422 l 4.2692,1.93098 -2.9821,0.70129 c -25.1508,5.79024 -46.6761,12.45926 -67.4411,20.88178 -1.6963,0.70183 -3.2173,1.28687 -3.333,1.28687 -0.1176,0 0.4674,-1.34513 1.2278,-2.98346 6.2587,-13.27734 10.2947,-27.14 11.2881,-38.95596 0.06,-1.11155 0.2338,-1.98843 0.4097,-1.98843 z m -105.9863,24.33294 c 0.1751,-0.17586 8.3058,1.75485 12.6926,2.98211 6.668,1.87245 20.8225,6.60968 20.8225,6.96114 0,0.0583 -1.5788,1.40366 -3.4499,3.04198 -7.6624,6.37556 -15.033,13.10122 -23.8657,21.64133 -2.6323,2.51603 -4.8543,4.56299 -4.9708,4.56299 -0.1177,0 -0.1751,-0.35173 -0.1177,-0.81944 1.3452,-9.82698 1.0536,-22.46076 -0.8183,-35.2704 -0.1761,-1.63832 -0.3512,-3.04145 -0.2927,-3.09971 z m 170.8545,0.17587 c 0.1157,0.11625 -3.7441,6.19942 -6.2005,9.65004 -3.5089,5.03015 -8.6578,11.69944 -20.2976,26.32219 -6.1404,7.7201396 -13.0435,16.43612959 -15.3238,19.3605096 -2.3407,2.92439 -4.27,5.38053 -4.3293,5.38053 -0.058,0 -0.8176,-1.05221 -1.637,-2.33881 -6.5514,-9.82699 -14.3897,-18.4253696 -23.69,-26.1460496 -1.7545,-1.46273 -3.6839,-3.04199 -4.3274,-3.50997 -0.6436,-0.46771 -1.1704,-0.93569 -1.1704,-0.99394 0,-0.17506 9.9427,-4.44593 17.4894,-7.48683 13.2194,-5.38161 31.2329,-11.81543 44.7457,-15.96869 7.0776,-2.22229 14.6233,-4.38659 14.7409,-4.26898 z m 4.5033,1.16899 c 0.2333,-0.058 1.6378,0.64385 3.3341,1.63725 14.2139,8.1304 28.134,18.60096 39.1313,29.36364 3.0997,3.04199 10.7622,10.9967996 10.6446,11.0550496 0,0 -2.6906,0.23386 -5.8486,0.46744 -24.625,1.87245 -56.1513,7.07739 -86.4507,14.38863 -2.0469,0.46743 -3.8597,0.87715 -3.9773,0.87715 -0.1157,0 2.1645,-2.28081 5.0312,-5.02961 17.7809,-17.1379596 25.9119,-27.9588896 35.5037,-47.2616896 1.3449,-2.86531 2.5152,-5.32199 2.6317,-5.49786 -0.058,0 -0.058,0 0,0 z m -130.2612,13.33696 c 0.8194,0.17451 8.4233,3.74382 14.1553,6.60914 5.2643,2.63119 13.1611,6.84353 13.5703,7.1939 0.058,0.0583 -2.7499,1.52073 -6.1994,3.21732 -10.9974,5.49813 -20.4141,10.7033296 -30.2413,16.6697096 -2.8074,1.69658 -5.147,3.10105999 -5.2053,3.10105999 -0.2341,0 -0.1758,-0.23521 1.4037,-3.10105999 5.2645,-9.5917896 9.4753,-21.0562896 11.8743,-32.2286796 0.233,-0.87716 0.4674,-1.46139 0.6424,-1.46139 z m -7.6041,1.40313 c 0.1758,0.17585 -1.8129,7.36976 -3.0407,11.28891 -2.399,7.42857 -6.4346,16.7285096 -10.3529,23.74762959 -0.9371,1.63698 -2.3405,4.03540001 -3.1008,5.38053001 l -1.462,2.33962 -3.2755,-3.15771 c -3.8016,-3.68528001 -6.9024,-5.96637 -10.8789,-8.01414 -1.5804,-0.81809 -2.8082,-1.52073 -2.8082,-1.63698 0,-0.46798 10.0021,-9.5340696 17.6645,-16.0852096 5.4979,-4.73804 17.0794,-14.03798 17.2545,-13.86265 z m 46.5021,19.12719 2.8664,1.87111 c 6.5495,4.27059 14.2702,9.9437796 20.1791,14.91539959 3.333,2.74852001 9.7669,8.54012001 11.0548,9.94378001 l 0.7008,0.7611704 -4.7367,1.34486 c -26.7896,7.42774 -47.4956,14.03744 -71.6529,22.92874 -2.6905,0.9939 -4.9719,1.8128 -5.1478,1.8128 -0.3498,0 -0.6433,0.2922 5.3822,-5.2648 15.4422,-14.2122 29.1284,-29.8890404 39.3063,-45.15535 z m -12.2251,3.04145 c 0.1165,0.11652 -7.8966,11.4051696 -12.6935,17.7809896 -5.7319,7.6041604 -15.9098,20.3550204 -22.9287,28.6602204 -2.9238,3.4517 -5.4385,6.3175 -5.5561,6.3763 -0.1759,0.058 -0.2341,-0.8189 -0.2341,-2.1643 0,-7.0782 -1.8129,-14.6235 -4.9719,-21.0571 -1.3454,-2.6905 -1.5795,-3.33407 -1.2861,-3.62619 1.111,-0.99475 18.132,-10.7044104 28.8941,-16.4946504 7.253,-3.86035 18.5993,-9.5923296 18.7763,-9.4752696 z m -73.9343,18.1324496 c 0.1759,0 1.5213,0.70129 3.0423,1.52072 3.7432,2.04696 7.0773,4.3280504 10.0603,6.7852704 0.1165,0.11653 -1.4037,1.34537 -3.3924,2.80677 -5.5569,3.9774 -13.9794,10.3535 -18.892,14.2727 -5.1486,4.0944 -5.3228,4.2112 -4.7386,3.3341 3.8609,-5.9079 5.7903,-9.242 7.8383,-13.5115 1.8129,-3.8016 3.6257,-8.30573 4.9126,-12.2248804 0.4677,-1.69631 1.053,-2.98318 1.1695,-2.98318 z m 19.7125,15.4413604 c 0.2916,-0.058 0.6436,0.468 2.222,2.8081 3.3342,4.9709 5.9079,11.6399 6.5523,17.0209 l 0.1157,1.1704 -8.0123,3.1002 c -14.3314,5.5562 -27.5497,11.0548 -36.5001,15.1485 -2.5144,1.1703 -6.9015,3.2756 -9.7671,4.6803 -2.8664,1.4614 -5.206,2.5729 -5.206,2.5147 0,-0.058 1.8129,-1.4037 4.0354,-3.042 17.4902,-12.6921 32.6389,-26.6138 43.9861,-40.5344 1.2286,-1.4628 2.3404,-2.8082 2.4564,-2.8664 z m -9.0661,2.2231 c 0.2342,0.2339 -6.4338,7.7789 -10.9962,12.3997 -11.2889,11.5235 -22.4611,20.5316 -36.324,29.3056 -1.7546,1.111 -3.3335,2.105 -3.5094,2.2226 -0.4097,0.2338 0.1165,-0.3515 6.1999,-6.9612 3.8609,-4.153 6.785,-7.6624 10.1191,-11.9902 2.2226,-2.8656 2.6323,-3.2753 5.8499,-5.5575 8.5984,-6.2002 28.4266,-19.6534 28.6607,-19.419 z"
       id="path21"
       style="opacity:1;fill:#ffffff;fill-opacity:1;stroke-width:0.26972768"
       inkscape:connector-curvature="0" />
    <text
       id="text4530"
       y="491.28802"
       x="1323.9578"
       style="font-style:normal;font-variant:normal;font-weight:normal;font-stretch:normal;font-size:297.300354px;line-height:1.25;font-family:Calibri;-inkscape-font-specification:'Calibri, Normal';font-variant-ligatures:normal;font-variant-caps:normal;font-variant-numeric:normal;text-align:start;letter-spacing:0px;word-spacing:0px;writing-mode:lr-tb;text-anchor:start;fill:#ffffff;fill-opacity:1;stroke:none;stroke-width:1.54843938"
       xml:space="preserve"><tspan
         style="fill:#ffffff;fill-opacity:1;stroke-width:1.54843938"
         y="491.28802"
         x="1323.9578"
         id="tspan4528"
         sodipodi:role="line">DeviceSQL</tspan></text>
    <text
       xml:space="preserve"
       style="font-style:normal;font-variant:normal;font-weight:normal;font-stretch:normal;font-size:103.52687073px;line-height:1.25;font-family:Calibri;-inkscape-font-specification:'Calibri, Normal';font-variant-ligatures:normal;font-variant-caps:normal;font-variant-numeric:normal;text-align:start;letter-spacing:0px;word-spacing:0px;writing-mode:lr-tb;text-anchor:start;fill:#ffffff;fill-opacity:1;stroke:none;stroke-width:0.53920251"
       x="1378.3324"
       y="696.98969"
       id="text4542"><tspan
         sodipodi:role="line"
         x="1378.3324"
         y="696.98969"
         style="fill:#ffffff;fill-opacity:1;stroke-width:0.53920251"
         id="tspan4544">SELECT * FROM Anywhere</tspan></text>
  </g>
</svg>
