<?xml version="1.0" encoding="UTF-8" standalone="no"?>
<svg
   xmlns:osb="http://www.openswatchbook.org/uri/2009/osb"
   xmlns:dc="http://purl.org/dc/elements/1.1/"
   xmlns:cc="http://creativecommons.org/ns#"
   xmlns:rdf="http://www.w3.org/1999/02/22-rdf-syntax-ns#"
   xmlns:svg="http://www.w3.org/2000/svg"
   xmlns="http://www.w3.org/2000/svg"
   xmlns:sodipodi="http://sodipodi.sourceforge.net/DTD/sodipodi-0.dtd"
   xmlns:inkscape="http://www.inkscape.org/namespaces/inkscape"
   width="4426.1284"
   height="2894.2637"
   viewBox="0 0 2617.0829 1711.5122"
   version="1.1"
   id="svg27"
   sodipodi:docname="DeviceSQL.svg"
   inkscape:version="0.92.1 r15371">
  <metadata
     id="metadata33">
    <rdf:RDF>
      <cc:Work
         rdf:about="">
        <dc:format>image/svg+xml</dc:format>
        <dc:type
           rdf:resource="http://purl.org/dc/dcmitype/StillImage" />
        <dc:title></dc:title>
      </cc:Work>
    </rdf:RDF>
  </metadata>
  <defs
     id="defs31">
    <linearGradient
       id="linearGradient4586"
       osb:paint="solid">
      <stop
         style="stop-color:#000000;stop-opacity:1;"
         offset="0"
         id="stop4584" />
    </linearGradient>
    <linearGradient
       gradientTransform="matrix(0.0702146,0,0,-0.0702146,405.66107,950.33024)"
       y2="1420.3311"
       x2="-2061.249"
       y1="923.573"
       x1="-2901.9519"
       gradientUnits="userSpaceOnUse"
       id="a">
      <stop
         id="stop2"
         stop-color="#909ca9"
         offset="0" />
      <stop
         id="stop4"
         stop-color="#ededee"
         offset="1" />
    </linearGradient>
    <linearGradient
       gradientTransform="matrix(0.0702146,0,0,-0.0702146,405.66107,950.33024)"
       y2="10288.81"
       x2="-2206.249"
       y1="10288.81"
       x1="-2882.7"
       gradientUnits="userSpaceOnUse"
       id="b">
      <stop
         id="stop9"
         stop-color="#939fab"
         offset="0" />
      <stop
         id="stop11"
         stop-color="#dcdee1"
         offset="1" />
    </linearGradient>
    <radialGradient
       gradientUnits="userSpaceOnUse"
       gradientTransform="matrix(-0.0674265,-0.0101282,-0.020484,0.134853,-366.63409,-679.67724)"
       r="898.12"
       cy="7277.7051"
       cx="-14217.448"
       id="c">
      <stop
         id="stop16"
         stop-color="#ee352c"
         offset="0" />
      <stop
         id="stop18"
         stop-color="#a91d22"
         offset="1" />
    </radialGradient>
  </defs>
  <sodipodi:namedview
     pagecolor="#ffffff"
     bordercolor="#666666"
     borderopacity="1"
     objecttolerance="10"
     gridtolerance="10"
     guidetolerance="10"
     inkscape:pageopacity="0"
     inkscape:pageshadow="2"
     inkscape:window-width="1920"
     inkscape:window-height="1017"
     id="namedview29"
     showgrid="false"
     inkscape:zoom="0.08032733"
     inkscape:cx="2318.6741"
     inkscape:cy="640.95348"
     inkscape:window-x="-8"
     inkscape:window-y="-8"
     inkscape:window-maximized="1"
     inkscape:current-layer="g4538"
     fit-margin-top="0"
     fit-margin-left="0"
     fit-margin-right="0"
     fit-margin-bottom="0" />
  <g
     id="g4538"
     transform="translate(200.06961,-150.95914)">
    <rect
       style="opacity:1;fill:#1978d7;fill-opacity:1;stroke:none;stroke-width:0;stroke-linejoin:round;stroke-miterlimit:4;stroke-dasharray:none;stroke-opacity:1"
       id="rect4558"
       width="2942.9314"
       height="2378.2607"
       x="-379.7016"
       y="-218.51595" />
    <g
       id="g4556"
       style="fill:#ffffff;fill-opacity:1">
      <path
         inkscape:connector-curvature="0"
         d="m 2202.8252,481.94415 -141.0034,-81.4285 v 58.08709 H 1341.114 L 1481.4442,310.343 c 11.9425,-9.57267 27.5681,-16.28793 43.6421,-16.65992 65.0249,0 103.6396,-0.0143 117.8539,-0.0477 9.6346,27.45 35.5149,47.26321 66.2814,47.26321 38.9221,0 70.509,-31.58395 70.509,-70.52003 0,-38.95279 -31.584,-70.52551 -70.509,-70.52551 -30.7665,0 -56.6468,19.80197 -66.2814,47.22945 l -116.4733,-0.0192 c -31.5669,0 -64.6441,17.3193 -85.6975,37.62288 0.5746,-0.60307 1.1722,-1.24554 -0.048,0.009 -0.4433,0.5016 -148.8854,157.28295 -148.8854,157.28295 -11.9173,9.55858 -27.5343,16.23157 -43.597,16.61484 h -81.5305 c -10.8068,-53.86021 -58.369,-94.43919 -115.422,-94.43919 -65.04723,0 -117.7747,52.72729 -117.7747,117.7551 0,65.04752 52.72747,117.77761 117.7747,117.77761 57.0644,0 104.6261,-40.61276 115.433,-94.518 h 80.1016 c 0.2049,0 0.4098,0.009 0.62,0 h 177.1692 c 16.0317,0.40888 31.6292,7.09006 43.5351,16.65992 0,0 148.4064,156.77006 148.8659,157.27735 1.1889,1.25963 0.597,0.603 0,0.009 21.0528,20.30074 54.1445,37.60882 85.717,37.60882 l 112.2459,-0.0238 v 47.2773 h 141.0403 V 622.95244 h -141.0403 v 47.21533 c 0,0 -29.5634,-0.0533 -113.6207,-0.0533 -16.0769,-0.36931 -31.7193,-7.07596 -43.6565,-16.64866 L 1517.3384,505.17778 h 544.4596 v 58.18011 z"
         id="path1334"
         style="stroke-width:2.8179841;fill:#ffffff;fill-opacity:1" />
      <path
         inkscape:connector-curvature="0"
         style="fill:#ffffff;stroke-width:0.56900001;fill-opacity:1"
         id="path7"
         d="m 549.30114,531.50185 -163.2461,53.30563 -142.02183,62.68161 -39.7327,10.48952 c -10.1191,9.6252 -20.72924,19.37388 -32.20484,29.24489 -12.58571,10.85766 -24.30768,20.73037 -33.31665,27.88555 -9.99392,7.89772 -24.80101,22.70424 -32.32717,32.08022 -11.229214,14.06625 -20.113011,28.99624 -23.938398,40.47297 -6.787032,20.73038 -3.45383,41.70599 9.625204,61.07987 16.780944,24.67697 50.220514,49.84782 89.210664,66.99919 19.86721,8.7626 53.30563,19.9901 78.47648,26.28211 41.82833,10.61241 122.7737,22.08801 167.31673,23.81663 9.00613,0.36985 21.09965,0.36985 21.59184,0 0.98835,-0.61907 7.89829,-13.82044 15.92005,-30.2304 27.3928,-55.89742 47.13482,-108.33874 57.86901,-153.12871 6.41604,-27.14472 11.47445,-63.29898 14.80481,-106.11395 0.86545,-11.96949 1.23416,-52.07147 0.49389,-65.64553 -1.11126,-22.20978 -3.08569,-40.22375 -6.16796,-57.86901 -0.49389,-2.59179 -0.61907,-4.93664 -0.37099,-5.05955 0.49219,-0.36985 1.97273,-0.86317 22.08574,-6.66412 l -4.07006,-9.62293 v -0.003 0 z m -37.26381,21.84164 c 1.48054,0 5.42769,37.88003 6.41433,61.81957 0.24809,5.05841 0.12291,8.38991 -0.1229,8.38991 -0.98608,0 -20.85328,-11.72083 -35.04073,-20.60463 -12.3399,-7.77425 -35.78327,-23.32217 -39.48461,-26.28325 -1.23644,-0.86317 -1.11354,-0.98608 9.00613,-4.44218 17.14966,-5.80039 57.87071,-18.87942 59.22778,-18.87942 z m -83.16561,27.39336 c 1.11125,0 3.94715,1.60231 10.73418,5.79868 25.4178,15.91721 59.96862,35.16705 74.77514,41.58423 4.56452,1.97386 5.0567,1.23246 -5.4294,8.39047 -22.45729,15.29985 -50.46859,30.35274 -84.77133,45.53025 -6.04505,2.7147 -11.10346,4.81146 -11.22637,4.81146 -0.24581,0 0.49219,-3.08284 1.47826,-6.78532 8.26757,-30.72657 12.95727,-61.82015 13.20536,-86.74519 0.1229,-12.33991 0.1229,-12.33991 1.23416,-12.70805 -0.24809,0.12347 -0.12518,0.12347 0,0.12347 z m -17.1508,6.53895 c 0.73799,0.73913 0.24581,28.38002 -0.74198,35.90618 -2.2208,18.01568 -5.67577,34.79606 -11.34984,53.67661 -1.35763,4.56225 -2.5935,8.38991 -2.8376,8.63572 -0.49617,0.61622 -17.40059,-15.91778 -22.95289,-22.33382 -9.62521,-11.10574 -17.15023,-22.21092 -22.7031,-33.06858 -2.83818,-5.55287 -7.27922,-16.40996 -6.90994,-16.78094 1.97386,-1.35707 67.00146,-26.52792 67.49535,-26.03517 z m -80.69899,31.71094 c 0.1229,0 0.2458,0 0.37098,0.12291 0.24581,0.24694 1.11126,2.22194 1.85153,4.44218 3.94715,10.73532 12.82981,26.52906 20.48229,36.64758 8.39048,11.10574 19.37331,22.95005 28.50178,30.72373 2.96278,2.46775 5.67578,4.81146 6.04506,5.18245 0.74197,0.74084 0.98835,0.61622 -19.12523,8.26757 -23.31819,8.8838 -48.73826,17.76759 -77.85912,27.14471 a 3883.6947,3883.6947 0 0 0 -20.84986,6.78703 c -1.1124,0.37099 -0.74141,-0.24694 2.46661,-5.30478 14.4361,-22.58134 36.39893,-66.87799 48.73884,-98.21964 2.0979,-5.4294 4.19523,-10.85766 4.56622,-12.09182 0.49389,-1.72863 1.10955,-2.34485 2.71299,-3.20916 0.86374,-0.24467 1.72862,-0.49276 2.09791,-0.49276 z m -24.67583,10.24143 c 0.36928,0.24809 -5.92386,13.44946 -12.09352,25.54184 -11.96949,23.32047 -25.04852,46.27279 -42.56974,74.15834 -2.96107,4.81147 -5.79811,9.25479 -6.1691,9.74811 -0.61622,0.86431 -0.86431,0.61623 -2.83817,-3.20802 -4.19524,-8.26757 -7.65134,-18.87999 -9.50173,-28.6281 -1.85153,-9.6252 -1.48054,-26.40501 0.61793,-36.76935 1.60231,-7.64963 1.48054,-7.52616 5.18189,-9.37769 15.79373,-8.02005 66.87855,-31.95845 67.37244,-31.46513 z m 212.84754,8.63856 v 5.18188 c 0,27.51627 -2.96108,65.27341 -7.28149,92.79082 -0.74027,4.81146 -1.35934,8.75861 -1.48054,8.88379 0,0 -3.57787,-0.98607 -7.77311,-2.22194 -18.50786,-5.79982 -38.62088,-14.31377 -56.76003,-24.30654 -11.97062,-6.54009 -29.36722,-17.27655 -28.87276,-17.77044 0.12119,-0.12234 5.30478,-2.83704 11.34984,-6.04563 24.18762,-12.58514 47.38291,-26.15807 67.49592,-39.60752 7.5273,-5.05955 18.87714,-13.20194 21.34774,-15.42388 z M 213.1843,674.388 c 0.49332,0 0.36985,0.98721 -0.37042,5.42939 -0.49389,3.20916 -1.11012,9.13188 -1.35536,13.20194 -0.98949,18.01568 1.97387,31.3428 10.85766,49.60371 2.46776,5.05955 4.44332,9.25479 4.31814,9.37712 -0.86431,0.74141 -82.5471,24.68038 -108.21412,31.71265 -7.64964,2.09677 -14.31149,3.94829 -14.80766,4.07006 -0.86203,0.24808 -0.98608,0.12518 -0.61623,-1.97443 2.83761,-18.13688 16.65805,-41.82833 35.90618,-61.81844 12.83323,-13.32541 23.07523,-21.09852 40.59644,-31.09471 12.58571,-7.15518 31.95789,-17.88879 33.43843,-18.38382 10e-4,-0.12347 0.12404,-0.12347 0.24694,-0.12347 z m 192.48986,34.4262 c 0.1229,-0.1229 3.08398,1.48225 6.66185,3.57901 26.40615,15.30098 63.17607,29.49127 94.51545,36.77049 l 2.83988,0.61793 -3.94943,2.21853 c -16.40996,9.13189 -70.33181,31.58804 -125.48612,52.19551 -8.02176,2.95994 -15.91778,5.92272 -17.40059,6.53895 -1.48054,0.61623 -2.83817,0.98722 -2.83817,0.86431 0,-0.12518 2.22251,-4.44332 5.05841,-9.74811 15.42388,-28.87333 30.97237,-64.03924 38.86896,-88.47096 0.98949,-2.34428 1.60458,-4.44105 1.72976,-4.56566 z m -19.61912,6.41719 c 0.12518,0.12574 -0.86318,2.71469 -2.09791,5.67577 -10.73418,26.03516 -24.80271,54.41688 -42.81668,86.25073 -4.56452,8.14466 -8.39047,14.68475 -8.51565,14.68475 -0.1212,0 -3.82425,-2.22252 -8.26586,-4.93664 -26.16035,-16.04125 -49.35677,-35.78328 -64.53257,-54.90907 l -2.22195,-2.7147 11.22751,-3.08512 c 40.22603,-10.98056 74.40358,-22.82601 108.3376,-37.38558 4.81317,-1.975 8.7626,-3.58014 8.88551,-3.58014 z m 121.90995,42.56973 c 0,0 0.12348,0.12347 0,0 0.12291,2.83817 -6.17023,28.25711 -11.35325,46.64036 -4.31814,15.42388 -8.02177,27.51741 -14.80652,48.86231 -2.96108,9.37996 -5.5506,17.15136 -5.67578,17.15136 -0.1229,0 -0.86317,-0.1229 -1.60344,-0.36814 -36.64644,-6.66526 -69.46864,-15.91891 -100.31641,-28.25711 -8.63855,-3.4561 -20.97675,-9.00898 -21.71702,-9.6252 -0.24581,-0.24922 7.15802,-3.70192 16.53514,-7.77425 56.14266,-24.55462 114.38266,-52.44131 134.37106,-64.40852 2.34371,-1.48111 4.19524,-2.22081 4.56622,-2.22081 z m -281.45357,9.6252 c 0.24695,0.24581 -15.42388,22.82715 -37.38842,53.55087 -7.64964,10.73532 -16.53343,23.32046 -19.86436,28.00902 -3.33206,4.68913 -8.39047,12.09296 -11.22865,16.53514 l -5.18472,8.02063 -5.55288,-4.68856 c -6.54008,-5.43054 -17.89049,-17.02846 -22.94947,-23.44508 -10.61242,-13.20137 -17.7676,-27.14471 -20.60577,-39.85276 -1.35763,-5.92386 -1.35763,-8.88664 -0.12518,-9.25478 1.85039,-0.49333 34.79606,-8.26757 65.64553,-15.42559 17.15137,-3.94715 37.01573,-8.63571 44.17261,-10.3632 7.15745,-1.73033 12.95841,-3.08569 13.08131,-3.08569 z m 15.79316,6.0462 3.94716,4.44161 c 17.77044,19.86607 35.90845,34.55196 57.87185,47.38177 3.94943,2.22251 6.90993,4.19524 6.66185,4.32099 -0.86147,0.61622 -76.2551,27.38938 -111.17406,39.48234 -19.61799,6.90936 -35.78328,12.46167 -35.90504,12.46167 -0.12291,0 -1.23416,-0.73914 -2.47003,-1.60345 l -2.21967,-1.60458 3.57787,-5.18131 c 11.59793,-16.78152 26.16035,-35.16591 57.87128,-73.41693 z m 98.46716,70.45472 c 0.1212,-0.12234 5.5506,1.85038 12.21302,4.32098 16.04295,6.04506 28.74986,9.86931 45.77946,14.18859 20.97675,5.30649 51.33006,10.48894 69.22283,11.96891 2.7147,0.24581 4.19524,0.49389 3.70135,0.86431 -0.86545,0.49389 -19.00176,6.54009 -32.32831,10.73532 -21.22483,6.66186 -86.00378,25.78709 -138.81437,40.96516 -9.74811,2.8376 -18.13915,5.18245 -18.63248,5.30479 -1.23245,0.24808 -5.30592,-0.86431 -5.30592,-1.35764 0,-0.24524 2.96107,-4.07005 6.54008,-8.26586 17.76703,-21.2237 35.41343,-44.91401 50.09704,-67.37131 4.07063,-6.17137 7.5273,-11.22978 7.5273,-11.35325 z m -21.71873,0.6185 c 0.1229,0.1229 -8.63685,14.18858 -23.93555,38.37279 -6.54123,10.24143 -13.82158,21.83993 -16.41338,25.91226 -2.46775,3.94829 -6.1691,10.1191 -8.26586,13.57293 l -3.57901,6.29371 -1.85039,-0.4939 c -4.44332,-1.23416 -35.66037,-12.217 -43.92794,-15.54792 -10.242,-4.07234 -20.85328,-9.0067 -28.751,-13.20194 -9.86987,-5.30649 -22.20807,-13.20421 -21.22199,-13.44945 0.24638,-0.12291 17.15137,-4.69027 37.50962,-10.24143 54.04589,-14.68532 84.02878,-23.19813 103.64961,-29.36723 3.57901,-1.11069 6.66299,-1.975 6.78589,-1.84982 z m 153.62147,36.02794 h 0.1229 c 0.49389,1.2353 -19.49394,56.7606 -26.77714,74.28124 -1.60174,3.9483 -2.21682,4.93722 -3.08227,4.81147 -2.09791,-0.1212 -31.09358,-4.19353 -48.74054,-6.78533 -30.72259,-4.68856 -82.30073,-13.69753 -95.25572,-16.65747 l -2.96108,-0.61623 18.38268,-4.19808 c 39.48633,-8.8838 58.48808,-13.69526 77.73621,-19.61798 24.30882,-7.40326 48.37126,-16.65805 72.6778,-28.00903 3.82482,-1.72805 7.03341,-3.08512 7.89716,-3.20859 z" />
      <path
         inkscape:connector-curvature="0"
         style="fill:#ffffff;stroke-width:0.56900001;fill-opacity:1"
         id="path14"
         d="m 380.99663,150.96546 c -2.7147,-0.36814 -46.51974,15.42559 -74.77514,26.89948 -38.12869,15.54906 -67.74059,30.35672 -86.00321,43.18653 -6.78533,4.81431 -15.30098,13.32712 -16.65634,16.65804 -0.49332,1.23417 -0.7414,2.7147 -0.7414,4.19524 l 16.53514,15.67083 39.36057,12.58571 93.65399,16.78152 107.10173,18.38553 1.11126,-9.25422 c -0.36929,0 -0.61737,-0.1229 -0.98437,-0.1229 l -14.07024,-2.22195 -2.83589,-5.05841 C 428.13202,263.00498 412.09134,231.17 402.71422,209.69992 395.435,193.04188 388.5245,173.79488 384.69854,159.97444 c -2.0979,-8.39047 -2.34371,-8.8838 -3.69907,-9.0067 v -0.003 h -0.006 z m -1.97671,6.29485 h 0.12689 c 0.12119,0.12177 0.61509,3.57901 1.10955,7.6485 2.09562,17.27712 5.92386,33.93231 11.96891,51.94799 4.56452,13.5735 4.56452,12.8338 -0.74027,11.22865 -12.58571,-3.45383 -68.97474,-13.20194 -109.817,-18.87771 -6.54008,-0.86432 -12.09295,-1.72749 -12.09295,-1.85039 -0.49333,-0.49333 29.48956,-16.16529 42.69264,-22.33325 16.90442,-7.77539 63.29897,-27.14756 66.75223,-27.76379 z m -118.94774,55.27835 4.81431,1.60231 c 26.15693,8.8855 91.92252,21.47178 128.20139,24.43286 4.07062,0.37041 7.5273,0.7414 7.64849,0.7414 0.12291,0.12291 -3.32978,1.97386 -7.7731,4.07063 -17.51951,8.76089 -36.76935,19.49621 -50.0959,27.76378 -3.94715,2.46662 -7.5273,4.44219 -8.01949,4.44219 -0.49389,0 -3.08398,-0.49389 -5.79868,-0.86431 l -4.9355,-0.74141 -12.33763,-12.09296 C 290.05905,240.79463 273.03058,224.50758 266.4905,218.33677 Z m -4.9338,3.82425 17.39774,21.71759 c 9.50003,11.96892 19.12466,23.69032 21.22427,26.28041 2.09563,2.59293 3.82425,4.6914 3.70135,4.8143 -0.4939,0.36985 -25.17029,-4.44332 -38.2516,-7.40325 -13.44945,-3.08569 -19.00175,-4.56623 -27.26875,-7.15632 l -6.78704,-2.22194 v -1.72862 c 0.12291,-8.26757 10.61242,-20.60577 28.38002,-33.19034 z m 147.82108,29.61417 c 0.49446,0 1.10955,1.11012 2.59009,4.44162 4.19523,9.25365 17.27711,34.17983 20.48229,38.99129 0.99006,1.60572 2.7147,1.72862 -14.68134,-1.10955 -41.82833,-6.78817 -55.27949,-9.0067 -55.27949,-9.25364 0,-0.12291 1.23416,-0.98722 2.83817,-1.85153 12.9567,-7.15518 26.03517,-16.28706 37.6348,-26.03516 2.83817,-2.34485 5.4294,-4.56566 5.92159,-4.93665 0.1229,-0.24638 0.37098,-0.36928 0.49389,-0.24638 z" />
      <path
         inkscape:connector-curvature="0"
         style="opacity:1;fill:#ffffff;stroke-width:0.56900001;fill-opacity:1"
         id="path21"
         d="m 204.42284,235.98203 c 0,0 -2.71299,4.32042 -0.12234,10.73703 1.60572,3.94715 6.29371,8.75862 11.5985,13.69526 0,0 54.9085,53.55087 61.57206,61.20221 30.35274,35.04187 43.55638,69.59155 44.79054,117.22083 0.74027,30.60082 -5.06068,57.49972 -19.49621,88.71791 -25.66532,56.01976 -79.83469,117.83876 -163.36958,186.44423 l 12.21757,-4.07233 c 7.89658,-5.92386 18.63191,-12.21473 43.80276,-26.03517 58.11595,-31.83669 123.5134,-61.07987 203.71793,-91.1868 115.4905,-43.43461 305.39084,-94.27249 413.47864,-110.80478 l 11.23036,-1.72863 -1.72862,-2.71469 c -9.86931,-15.30098 -16.65805,-24.80101 -24.80271,-34.91897 -23.68918,-29.36722 -52.43734,-53.18044 -87.60552,-72.9236 -48.36898,-27.02125 -110.92996,-48.1209 -190.14444,-63.79173 -14.92999,-2.96279 -47.75218,-8.63799 -74.40414,-12.70976 -56.51365,-8.75861 -93.03719,-14.80594 -133.26151,-21.71588 -14.43553,-2.46889 -36.03079,-6.16967 -50.34398,-9.25365 -7.40326,-1.60572 -21.59185,-4.93664 -32.69702,-8.76146 -8.8838,-3.45667 -21.71759,-6.91164 -24.43229,-17.40002 z m 31.83669,30.8489 c 0.12176,-0.12176 2.09562,0.61623 4.68856,1.48054 4.68856,1.60231 10.73418,3.45383 17.89277,5.4294 a 910.09843,910.09843 0 0 0 16.28706,4.31814 c 7.40326,1.84982 13.57179,3.57787 13.69469,3.57787 0.86545,0.86431 13.32826,40.71651 17.52349,56.01748 1.60174,5.80096 2.83818,10.73533 2.7147,10.73533 -0.12688,0.12518 -1.48224,-1.97386 -3.08569,-4.81147 -14.43723,-25.41893 -37.26437,-51.20715 -63.67053,-71.93753 -3.45326,-2.46548 -6.04505,-4.68685 -6.04505,-4.80976 z m 60.70775,16.78095 c 0.61736,0 3.33206,0.37042 6.66185,1.11012 20.97675,4.68856 58.61155,11.84544 82.67171,15.91778 4.07234,0.61622 7.2815,1.3582 7.2815,1.60344 0,0.24808 -1.48225,1.11012 -3.33377,2.09847 -4.07006,2.09677 -20.4823,11.84374 -25.90999,15.54622 -13.69753,9.13074 -26.03516,19.00175 -34.9201,27.88555 -3.57787,3.57901 -6.66412,6.54009 -6.66412,6.54009 0,0 -0.738,-2.09677 -1.35764,-4.6897 -4.43934,-17.15137 -13.69526,-42.57031 -22.08573,-60.4608 -1.35764,-2.83704 -2.46889,-5.42883 -2.46889,-5.67464 0,0.24638 0,0.12347 0.12518,0.12347 z m 106.85535,20.35939 c 0.74027,0.24581 1.97443,4.44162 4.44161,13.69526 4.56623,17.89278 6.66413,37.88175 5.92386,56.51365 -0.24808,5.18245 -0.49389,9.99392 -0.74197,10.61242 l -0.36928,1.23245 -6.41605,-2.09676 c -13.20307,-4.19524 -34.67201,-10.48951 -53.0564,-15.67083 -10.49009,-2.83817 -19.00176,-5.4294 -19.00176,-5.67577 0,-0.74141 15.30098,-16.04125 21.83993,-21.83993 12.45996,-10.98341 46.2688,-37.14148 47.38006,-36.77049 z m 8.51395,1.23246 c 0.37099,-0.36815 51.08425,8.39047 74.15834,12.83322 17.1525,3.33093 42.07641,8.51395 43.55638,9.13188 0.74027,0.24581 -1.85153,1.72635 -10.1191,5.42769 -32.57411,14.68476 -56.76002,27.88556 -80.81848,43.92794 -6.29314,4.19524 -11.59964,7.64964 -11.72254,7.64964 -0.1229,0 -0.24638,-3.57731 -0.24638,-7.89658 0,-23.44337 -4.68913,-47.13483 -13.32825,-67.1238 -0.86318,-1.97443 -1.60345,-3.82481 -1.47997,-3.94999 z m 131.1636,25.91339 c 0.37099,0.36985 -1.23416,10.36548 -2.7147,16.28706 -4.44161,18.38553 -16.40996,45.65656 -31.09186,71.32017 -2.59351,4.56565 -4.93722,8.26757 -5.18587,8.39047 -0.2441,0.1229 -3.57617,-1.72862 -7.40212,-3.94943 -14.31263,-8.39047 -30.59968,-16.28705 -48.36898,-23.69145 -4.9338,-2.09677 -9.25365,-3.82539 -9.37712,-4.07006 -0.86545,-0.74141 38.86725,-27.02352 59.844,-39.60923 16.65805,-10.11739 43.80276,-25.17199 44.29665,-24.67753 z m 9.37712,1.47997 c 1.11126,0 23.56855,6.17024 35.28881,9.62521 28.99795,8.63799 62.31233,20.85271 84.02935,30.72372 l 9.00614,4.07347 -6.29087,1.4794 c -53.0564,12.21472 -98.46488,26.28325 -142.26934,44.05084 -3.57844,1.48054 -6.78704,2.7147 -7.03114,2.7147 -0.24808,0 0.98608,-2.8376 2.59009,-6.29371 13.20308,-28.00902 21.71702,-57.25278 23.81265,-82.17896 0.12575,-2.34485 0.49332,-4.19467 0.86431,-4.19467 z m -223.58172,51.3312 c 0.36928,-0.37099 17.52122,3.70191 26.77543,6.29086 14.06625,3.95 43.92566,13.94335 43.92566,14.68476 0,0.1229 -3.33035,2.96107 -7.27751,6.41718 -16.16415,13.44945 -31.71264,27.63747 -50.34568,45.65314 -5.55288,5.30764 -10.2403,9.62578 -10.48611,9.62578 -0.24808,0 -0.36928,-0.74198 -0.24808,-1.72863 2.8376,-20.73037 2.22251,-47.38176 -1.72635,-74.40414 -0.37155,-3.45611 -0.74083,-6.41605 -0.61736,-6.53895 z m 360.42338,0.37099 c 0.2441,0.24524 -7.89829,13.07789 -13.08018,20.35711 -7.40212,10.61128 -18.26376,24.68038 -42.81838,55.52757 -12.95329,16.28592 -27.51571,34.67259 -32.32603,40.84168 -4.93778,6.1691 -9.00784,11.35042 -9.13302,11.35042 -0.1229,0 -1.72464,-2.21967 -3.45326,-4.9338 -13.82044,-20.73038 -30.35558,-38.86896 -49.9747,-55.15602 -3.70135,-3.08568 -7.7714,-6.41718 -9.12904,-7.40439 -1.35763,-0.98665 -2.46889,-1.97387 -2.46889,-2.09677 0,-0.36928 20.97448,-9.37883 36.89453,-15.79373 27.88669,-11.35269 65.88679,-24.92505 94.39255,-33.68651 14.93056,-4.68799 30.84833,-9.25365 31.09642,-9.00556 z m 9.50002,2.46604 c 0.49219,-0.12233 3.45497,1.35821 7.03341,3.45383 29.98459,17.15137 59.34954,39.23938 82.54881,61.94362 6.53895,6.41718 22.7031,23.19813 22.45502,23.32103 0,0 -5.67578,0.49333 -12.33763,0.98608 -51.94742,3.95 -118.45328,14.92999 -182.37076,30.35331 -4.31814,0.98607 -8.14239,1.85038 -8.39047,1.85038 -0.2441,0 4.56622,-4.81146 10.61356,-10.61014 37.50961,-36.15312 54.66212,-58.98026 74.89633,-99.70018 2.83703,-6.04449 5.30592,-11.22694 5.55173,-11.59793 -0.1229,0 -0.1229,0 0,0 z M 424.4284,414.9001 c 1.72862,0.36814 17.7693,7.89772 29.86112,13.9422 11.10517,5.5506 27.76378,14.43667 28.62696,15.1758 0.1229,0.12291 -5.80096,3.20803 -13.0779,6.78704 -23.19927,11.59849 -43.0642,22.57905 -63.79514,35.16533 -5.92215,3.57901 -10.85766,6.5418 -10.98056,6.5418 -0.4939,0 -0.37099,-0.49617 2.96107,-6.5418 11.10574,-20.23421 19.9884,-44.41898 25.04909,-67.98753 0.49161,-1.85039 0.98608,-3.08284 1.35536,-3.08284 z m -16.04125,2.95994 c 0.37099,0.37098 -3.82425,15.54678 -6.41434,23.81435 -5.06068,15.67083 -13.57406,35.28938 -21.83993,50.09647 -1.9767,3.45326 -4.93721,8.51281 -6.54122,11.35041 l -3.08398,4.93551 -6.90994,-6.66129 c -8.01948,-7.77424 -14.56071,-12.58628 -22.94947,-16.90612 -3.33377,-1.72578 -5.92386,-3.20803 -5.92386,-3.45326 0,-0.98722 21.09966,-20.11245 37.26381,-33.93232 11.59793,-9.99505 36.02965,-29.6136 36.39893,-29.24375 z m 98.09787,40.34949 6.04677,3.94716 c 13.81646,9.00897 30.10351,20.97675 42.56859,31.46456 7.03114,5.79811 20.60349,18.01568 23.32047,20.97675 l 1.47826,1.60572 -9.99221,2.83703 c -56.51365,15.66913 -100.1935,29.61247 -151.15428,48.36899 -5.67577,2.09676 -10.48838,3.82425 -10.85936,3.82425 -0.738,0 -1.35707,0.61622 11.35382,-11.10632 32.57582,-29.98117 61.44745,-63.05202 82.9181,-95.25685 z m -25.78935,6.41605 c 0.24581,0.2458 -16.65805,24.05959 -26.77714,37.50961 -12.09182,16.04125 -33.56247,42.93959 -48.36898,60.45967 -6.16796,7.28149 -11.47275,13.32712 -11.72084,13.45116 -0.37098,0.1229 -0.49389,-1.72749 -0.49389,-4.56566 0,-14.9317 -3.82425,-30.8489 -10.48837,-44.42069 -2.83818,-5.67577 -3.33207,-7.03341 -2.713,-7.64964 2.34371,-2.09847 38.24989,-22.58133 60.95299,-34.79605 15.30041,-8.14353 39.23596,-20.23535 39.60923,-19.9884 z M 324.72879,502.8766 c 0.37098,0 3.20916,1.4794 6.41775,3.20802 7.89658,4.31814 14.92999,9.13018 21.22256,14.31377 0.24581,0.24581 -2.96108,2.83817 -7.15631,5.92101 -11.72254,8.39048 -29.49014,21.84107 -39.85333,30.10864 -10.86108,8.63742 -11.22865,8.88379 -9.9962,7.03341 8.14467,-12.46281 12.21473,-19.49622 16.53514,-28.50292 3.82425,-8.01949 7.6485,-17.52122 10.3632,-25.78879 0.98665,-3.57844 2.22138,-6.29314 2.46719,-6.29314 z m 41.58422,32.57411 c 0.61509,-0.12176 1.35764,0.98722 4.68742,5.92386 7.03341,10.4861 12.46281,24.55463 13.82215,35.90618 l 0.2441,2.46889 -16.90214,6.54009 c -30.23268,11.72083 -58.11709,23.32046 -76.99822,31.95617 -5.30422,2.4689 -14.559,6.90994 -20.60406,9.87329 -6.04676,3.08284 -10.98227,5.42769 -10.98227,5.30479 0,-0.12291 3.82425,-2.96108 8.51281,-6.41718 36.89624,-26.7743 68.85298,-56.14266 92.79025,-85.50875 2.59179,-3.08569 4.93721,-5.92386 5.18188,-6.04677 z m -19.12523,4.6897 c 0.4939,0.49332 -13.57235,16.40996 -23.19699,26.1575 -23.81435,24.30939 -47.38233,43.31228 -76.62666,61.82128 -3.70134,2.34371 -7.03227,4.44048 -7.40326,4.68856 -0.86431,0.49332 0.24581,-0.74141 13.07904,-14.68475 8.14466,-8.76089 14.31319,-16.16415 21.3466,-25.29376 4.68856,-6.04505 5.55287,-6.90936 12.34047,-11.72367 18.13858,-13.07961 59.96691,-41.45962 60.4608,-40.96516 z" />
      <text
         xml:space="preserve"
         style="font-style:normal;font-variant:normal;font-weight:normal;font-stretch:normal;font-size:627.16552734px;line-height:1.25;font-family:Calibri;-inkscape-font-specification:'Calibri, Normal';font-variant-ligatures:normal;font-variant-caps:normal;font-variant-numeric:normal;text-align:start;letter-spacing:0px;word-spacing:0px;writing-mode:lr-tb;text-anchor:start;fill:#ffffff;fill-opacity:1;stroke:none;stroke-width:3.26648712"
         x="-252.8877"
         y="1604.3695"
         id="text4530"><tspan
           sodipodi:role="line"
           id="tspan4528"
           x="-252.8877"
           y="1604.3695"
           style="stroke-width:3.26648712;fill:#ffffff;fill-opacity:1">DeviceSQL</tspan></text>
      <text
         id="text4542"
         y="1842.2916"
         x="503.30276"
         style="font-style:normal;font-variant:normal;font-weight:normal;font-stretch:normal;font-size:113.53849792px;line-height:1.25;font-family:Calibri;-inkscape-font-specification:'Calibri, Normal';font-variant-ligatures:normal;font-variant-caps:normal;font-variant-numeric:normal;text-align:start;letter-spacing:0px;word-spacing:0px;writing-mode:lr-tb;text-anchor:start;fill:#ffffff;fill-opacity:1;stroke:none;stroke-width:0.59134638"
         xml:space="preserve"><tspan
           id="tspan4544"
           style="stroke-width:0.59134638;fill:#ffffff;fill-opacity:1"
           y="1842.2916"
           x="503.30276"
           sodipodi:role="line">SELECT * FROM Anywhere</tspan></text>
    </g>
  </g>
</svg>
